<svg width="100" height="100" viewBox="0 0 100 100" fill="none" xmlns="http://www.w3.org/2000/svg">
<path fill-rule="evenodd" clip-rule="evenodd" d="M93.7497 50C93.7497 49.1712 93.4205 48.3763 92.8344 47.7903C92.2484 47.2042 91.4535 46.875 90.6247 46.875H16.9185L36.5872 27.2125C36.8778 26.9219 37.1083 26.577 37.2655 26.1974C37.4227 25.8178 37.5037 25.4109 37.5037 25C37.5037 24.5891 37.4227 24.1822 37.2655 23.8026C37.1083 23.423 36.8778 23.078 36.5872 22.7875C36.2967 22.4969 35.9517 22.2665 35.5721 22.1092C35.1925 21.952 34.7856 21.871 34.3747 21.871C33.9638 21.871 33.5569 21.952 33.1773 22.1092C32.7977 22.2665 32.4528 22.4969 32.1622 22.7875L7.16223 47.7875C6.87121 48.0778 6.64031 48.4226 6.48277 48.8023C6.32523 49.1819 6.24414 49.5889 6.24414 50C6.24414 50.411 6.32523 50.818 6.48277 51.1977C6.64031 51.5774 6.87121 51.9222 7.16223 52.2125L32.1622 77.2125C32.4528 77.503 32.7977 77.7335 33.1773 77.8908C33.5569 78.048 33.9638 78.1289 34.3747 78.1289C34.7856 78.1289 35.1925 78.048 35.5721 77.8908C35.9517 77.7335 36.2967 77.503 36.5872 77.2125C36.8778 76.9219 37.1083 76.577 37.2655 76.1974C37.4227 75.8178 37.5037 75.4109 37.5037 75C37.5037 74.5891 37.4227 74.1822 37.2655 73.8026C37.1083 73.423 36.8778 73.078 36.5872 72.7875L16.9185 53.125H90.6247C91.4535 53.125 92.2484 52.7957 92.8344 52.2097C93.4205 51.6236 93.7497 50.8288 93.7497 50Z" fill="white"/>
</svg>
