<svg width="24" height="24" viewBox="0 0 24 24" fill="none" xmlns="http://www.w3.org/2000/svg">
<g clip-path="url(#clip0)">
<rect x="3.85718" y="2.57143" width="15.8571" height="18" fill="white"/>
<path d="M1.51107 0.794496L3.06872 20.7218C3.0921 21.021 3.29465 21.2762 3.58078 21.3669L11.7772 23.9656C11.9221 24.0115 12.0777 24.0115 12.2227 23.9656L20.419 21.3669C20.7052 21.2762 20.9077 21.021 20.9311 20.7218L22.4888 0.794496C22.5223 0.36607 22.1837 0 21.754 0H2.24592C1.81622 0 1.47763 0.36607 1.51107 0.794496ZM18.4943 6.97727H8.34278L8.64915 9.80239H18.2735L17.6439 17.8564L11.9999 19.6458L6.35599 17.8564L6.02707 13.6487H8.98946V15.7126L12.0791 16.5418L15.1503 15.7126L15.3885 12.4233H5.93127L5.30339 4.39035H18.6964L18.4943 6.97727Z" fill="#FC490B"/>
</g>
<defs>
<clipPath id="clip0">
<rect width="24" height="24" fill="white"/>
</clipPath>
</defs>
</svg>
