<svg width="375" height="30" viewBox="0 0 375 30" fill="none" xmlns="http://www.w3.org/2000/svg">
<path d="M2.85 28C2.63 28 2.45 27.93 2.31 27.79C2.17 27.65 2.1 27.47 2.1 27.25V7.75C2.1 7.53 2.17 7.35 2.31 7.21C2.47 7.07 2.65 7 2.85 7H6.72C6.94 7 7.12 7.07 7.26 7.21C7.42 7.35 7.5 7.53 7.5 7.75V14.98H14.88V7.75C14.88 7.53 14.95 7.35 15.09 7.21C15.23 7.07 15.41 7 15.63 7H19.5C19.72 7 19.9 7.07 20.04 7.21C20.18 7.35 20.25 7.53 20.25 7.75V27.25C20.25 27.47 20.18 27.65 20.04 27.79C19.9 27.93 19.72 28 19.5 28H15.63C15.41 28 15.23 27.93 15.09 27.79C14.95 27.65 14.88 27.47 14.88 27.25V19.78H7.5V27.25C7.5 27.47 7.42 27.65 7.26 27.79C7.12 27.93 6.94 28 6.72 28H2.85ZM29.8535 28.3C28.0935 28.3 26.6735 27.71 25.5935 26.53C24.5135 25.33 23.9735 23.66 23.9735 21.52V13.15C23.9735 12.93 24.0435 12.75 24.1835 12.61C24.3235 12.47 24.5035 12.4 24.7235 12.4H28.4735C28.6935 12.4 28.8735 12.47 29.0135 12.61C29.1735 12.75 29.2535 12.93 29.2535 13.15V21.34C29.2535 23.3 30.1235 24.28 31.8635 24.28C32.7035 24.28 33.3635 24.02 33.8435 23.5C34.3235 22.98 34.5635 22.26 34.5635 21.34V13.15C34.5635 12.93 34.6335 12.75 34.7735 12.61C34.9335 12.47 35.1135 12.4 35.3135 12.4H39.0635C39.2835 12.4 39.4635 12.47 39.6035 12.61C39.7435 12.75 39.8135 12.93 39.8135 13.15V27.25C39.8135 27.45 39.7435 27.63 39.6035 27.79C39.4635 27.93 39.2835 28 39.0635 28H35.5835C35.3835 28 35.2035 27.93 35.0435 27.79C34.9035 27.63 34.8335 27.45 34.8335 27.25V26.11C33.7935 27.57 32.1335 28.3 29.8535 28.3ZM52.8823 28.3C50.8823 28.3 49.3323 27.63 48.2323 26.29V27.25C48.2323 27.45 48.1623 27.63 48.0223 27.79C47.8823 27.93 47.7023 28 47.4823 28H44.0923C43.8923 28 43.7123 27.93 43.5523 27.79C43.4123 27.63 43.3423 27.45 43.3423 27.25V7.45C43.3423 7.23 43.4123 7.05 43.5523 6.91C43.7123 6.77 43.8923 6.7 44.0923 6.7H47.7523C47.9723 6.7 48.1523 6.77 48.2923 6.91C48.4323 7.05 48.5023 7.23 48.5023 7.45V13.87C49.6223 12.69 51.0823 12.1 52.8823 12.1C54.8223 12.1 56.3523 12.73 57.4723 13.99C58.5923 15.25 59.1923 16.96 59.2723 19.12C59.2923 19.38 59.3023 19.74 59.3023 20.2C59.3023 20.64 59.2923 20.99 59.2723 21.25C59.1723 23.49 58.5723 25.23 57.4723 26.47C56.3723 27.69 54.8423 28.3 52.8823 28.3ZM51.2623 24.28C52.2023 24.28 52.8723 24 53.2723 23.44C53.6923 22.88 53.9323 22.11 53.9923 21.13C54.0323 20.73 54.0523 20.42 54.0523 20.2C54.0523 19.98 54.0323 19.67 53.9923 19.27C53.9323 18.29 53.6923 17.52 53.2723 16.96C52.8723 16.4 52.2023 16.12 51.2623 16.12C50.3823 16.12 49.7123 16.39 49.2523 16.93C48.7923 17.47 48.5423 18.15 48.5023 18.97L48.4723 20.08L48.5023 21.22C48.5623 22.12 48.8023 22.86 49.2223 23.44C49.6623 24 50.3423 24.28 51.2623 24.28ZM69.468 28.3C67.068 28.3 65.178 27.65 63.798 26.35C62.418 25.05 61.698 23.16 61.638 20.68V19.63C61.718 17.27 62.448 15.43 63.828 14.11C65.228 12.77 67.098 12.1 69.438 12.1C71.138 12.1 72.568 12.45 73.728 13.15C74.908 13.83 75.788 14.77 76.368 15.97C76.968 17.17 77.268 18.55 77.268 20.11V20.83C77.268 21.03 77.198 21.21 77.058 21.37C76.918 21.51 76.738 21.58 76.518 21.58H66.918V21.79C66.958 22.73 67.188 23.49 67.608 24.07C68.028 24.65 68.638 24.94 69.438 24.94C69.938 24.94 70.348 24.84 70.668 24.64C70.988 24.42 71.278 24.16 71.538 23.86C71.718 23.64 71.858 23.51 71.958 23.47C72.078 23.41 72.258 23.38 72.498 23.38H76.218C76.398 23.38 76.548 23.44 76.668 23.56C76.808 23.66 76.878 23.8 76.878 23.98C76.878 24.5 76.578 25.1 75.978 25.78C75.398 26.46 74.548 27.05 73.428 27.55C72.308 28.05 70.988 28.3 69.468 28.3ZM71.988 18.61V18.55C71.988 17.57 71.758 16.8 71.298 16.24C70.858 15.66 70.238 15.37 69.438 15.37C68.658 15.37 68.038 15.66 67.578 16.24C67.138 16.8 66.918 17.57 66.918 18.55V18.61H71.988ZM80.8305 28C80.6105 28 80.4305 27.93 80.2905 27.79C80.1505 27.65 80.0805 27.47 80.0805 27.25V13.15C80.0805 12.93 80.1505 12.75 80.2905 12.61C80.4305 12.47 80.6105 12.4 80.8305 12.4H84.2805C84.5005 12.4 84.6805 12.48 84.8205 12.64C84.9805 12.78 85.0605 12.95 85.0605 13.15V14.35C86.1605 13.05 87.6405 12.4 89.5005 12.4H90.8205C91.0405 12.4 91.2205 12.47 91.3605 12.61C91.5005 12.75 91.5705 12.93 91.5705 13.15V16.24C91.5705 16.44 91.5005 16.62 91.3605 16.78C91.2205 16.92 91.0405 16.99 90.8205 16.99H87.9105C87.0905 16.99 86.4505 17.22 85.9905 17.68C85.5505 18.12 85.3305 18.75 85.3305 19.57V27.25C85.3305 27.47 85.2505 27.65 85.0905 27.79C84.9505 27.93 84.7705 28 84.5505 28H80.8305ZM101.684 28C97.5436 28 95.4736 26.03 95.4736 22.09V16.33H93.1336C92.9136 16.33 92.7236 16.26 92.5636 16.12C92.4236 15.98 92.3536 15.8 92.3536 15.58V13.15C92.3536 12.93 92.4236 12.75 92.5636 12.61C92.7236 12.47 92.9136 12.4 93.1336 12.4H95.4736V7.45C95.4736 7.23 95.5436 7.05 95.6836 6.91C95.8436 6.77 96.0236 6.7 96.2236 6.7H99.7036C99.9236 6.7 100.104 6.77 100.244 6.91C100.384 7.05 100.454 7.23 100.454 7.45V12.4H104.204C104.424 12.4 104.604 12.47 104.744 12.61C104.904 12.75 104.984 12.93 104.984 13.15V15.58C104.984 15.8 104.904 15.98 104.744 16.12C104.604 16.26 104.424 16.33 104.204 16.33H100.454V21.67C100.454 23.15 101.024 23.89 102.164 23.89H104.474C104.694 23.89 104.874 23.96 105.014 24.1C105.154 24.24 105.224 24.42 105.224 24.64V27.25C105.224 27.45 105.154 27.63 105.014 27.79C104.874 27.93 104.694 28 104.474 28H101.684Z" fill="white"/>
<path d="M116.591 28C116.391 28 116.221 27.94 116.081 27.82C115.961 27.68 115.901 27.51 115.901 27.31V7.72C115.901 7.5 115.961 7.33 116.081 7.21C116.221 7.07 116.391 7 116.591 7H118.091C118.411 7 118.671 7.16 118.871 7.48L125.201 19.6L131.591 7.48C131.631 7.36 131.711 7.25 131.831 7.15C131.971 7.05 132.141 7 132.341 7H133.811C134.031 7 134.201 7.07 134.321 7.21C134.461 7.33 134.531 7.5 134.531 7.72V27.31C134.531 27.51 134.461 27.68 134.321 27.82C134.181 27.94 134.011 28 133.811 28H132.341C132.141 28 131.971 27.94 131.831 27.82C131.711 27.68 131.651 27.51 131.651 27.31V12.55L126.641 22.33C126.441 22.75 126.121 22.96 125.681 22.96H124.751C124.311 22.96 123.991 22.75 123.791 22.33L118.751 12.55V27.31C118.751 27.51 118.681 27.68 118.541 27.82C118.421 27.94 118.261 28 118.061 28H116.591ZM147.039 28.3C144.879 28.3 143.239 27.55 142.119 26.05V27.31C142.119 27.51 142.049 27.68 141.909 27.82C141.789 27.94 141.629 28 141.429 28H140.049C139.849 28 139.679 27.94 139.539 27.82C139.419 27.68 139.359 27.51 139.359 27.31V7.39C139.359 7.19 139.419 7.03 139.539 6.91C139.679 6.77 139.849 6.7 140.049 6.7H141.519C141.719 6.7 141.879 6.77 141.999 6.91C142.119 7.03 142.179 7.19 142.179 7.39V14.29C143.359 12.83 144.979 12.1 147.039 12.1C149.119 12.1 150.689 12.79 151.749 14.17C152.809 15.53 153.379 17.24 153.459 19.3C153.479 19.52 153.489 19.82 153.489 20.2C153.489 20.58 153.479 20.88 153.459 21.1C153.379 23.18 152.809 24.9 151.749 26.26C150.689 27.62 149.119 28.3 147.039 28.3ZM146.409 25.87C147.829 25.87 148.859 25.43 149.499 24.55C150.159 23.67 150.519 22.51 150.579 21.07C150.599 20.87 150.609 20.58 150.609 20.2C150.609 16.42 149.209 14.53 146.409 14.53C145.069 14.53 144.039 14.97 143.319 15.85C142.599 16.73 142.219 17.76 142.179 18.94L142.149 20.11L142.179 21.25C142.239 22.51 142.609 23.6 143.289 24.52C143.989 25.42 145.029 25.87 146.409 25.87ZM157.621 9.49C157.421 9.49 157.251 9.43 157.111 9.31C156.991 9.17 156.931 9 156.931 8.8V7.18C156.931 6.98 156.991 6.81 157.111 6.67C157.251 6.53 157.421 6.46 157.621 6.46H159.511C159.711 6.46 159.881 6.53 160.021 6.67C160.161 6.81 160.231 6.98 160.231 7.18V8.8C160.231 9 160.161 9.17 160.021 9.31C159.881 9.43 159.711 9.49 159.511 9.49H157.621ZM157.861 28C157.661 28 157.491 27.94 157.351 27.82C157.231 27.68 157.171 27.51 157.171 27.31V13.09C157.171 12.89 157.231 12.73 157.351 12.61C157.491 12.47 157.661 12.4 157.861 12.4H159.301C159.501 12.4 159.661 12.47 159.781 12.61C159.921 12.73 159.991 12.89 159.991 13.09V27.31C159.991 27.51 159.921 27.68 159.781 27.82C159.661 27.94 159.501 28 159.301 28H157.861ZM170.527 28C167.367 28 165.787 26.24 165.787 22.72V14.8H163.447C163.247 14.8 163.077 14.74 162.937 14.62C162.817 14.48 162.757 14.31 162.757 14.11V13.09C162.757 12.89 162.817 12.73 162.937 12.61C163.077 12.47 163.247 12.4 163.447 12.4H165.787V7.39C165.787 7.19 165.847 7.03 165.967 6.91C166.107 6.77 166.277 6.7 166.477 6.7H167.887C168.087 6.7 168.247 6.77 168.367 6.91C168.507 7.03 168.577 7.19 168.577 7.39V12.4H172.297C172.497 12.4 172.657 12.47 172.777 12.61C172.917 12.73 172.987 12.89 172.987 13.09V14.11C172.987 14.31 172.917 14.48 172.777 14.62C172.657 14.74 172.497 14.8 172.297 14.8H168.577V22.51C168.577 23.51 168.747 24.27 169.087 24.79C169.427 25.29 169.987 25.54 170.767 25.54H172.597C172.797 25.54 172.957 25.61 173.077 25.75C173.217 25.87 173.287 26.03 173.287 26.23V27.31C173.287 27.51 173.217 27.68 173.077 27.82C172.957 27.94 172.797 28 172.597 28H170.527ZM182.546 28.3C180.346 28.3 178.636 27.68 177.416 26.44C176.216 25.2 175.576 23.55 175.496 21.49L175.466 20.2L175.496 18.91C175.576 16.87 176.226 15.23 177.446 13.99C178.666 12.73 180.366 12.1 182.546 12.1C184.726 12.1 186.426 12.73 187.646 13.99C188.866 15.23 189.516 16.87 189.596 18.91C189.616 19.13 189.626 19.56 189.626 20.2C189.626 20.84 189.616 21.27 189.596 21.49C189.516 23.55 188.866 25.2 187.646 26.44C186.446 27.68 184.746 28.3 182.546 28.3ZM182.546 25.99C183.806 25.99 184.796 25.59 185.516 24.79C186.256 23.99 186.656 22.84 186.716 21.34C186.736 21.14 186.746 20.76 186.746 20.2C186.746 19.64 186.736 19.26 186.716 19.06C186.656 17.56 186.256 16.41 185.516 15.61C184.796 14.81 183.806 14.41 182.546 14.41C181.286 14.41 180.286 14.81 179.546 15.61C178.806 16.41 178.416 17.56 178.376 19.06L178.346 20.2L178.376 21.34C178.416 22.84 178.806 23.99 179.546 24.79C180.286 25.59 181.286 25.99 182.546 25.99ZM194.072 28C193.872 28 193.702 27.94 193.562 27.82C193.442 27.68 193.382 27.51 193.382 27.31V13.12C193.382 12.92 193.442 12.75 193.562 12.61C193.702 12.47 193.872 12.4 194.072 12.4H195.452C195.652 12.4 195.822 12.47 195.962 12.61C196.102 12.75 196.172 12.92 196.172 13.12V14.44C196.992 13.08 198.392 12.4 200.372 12.4H201.542C201.742 12.4 201.902 12.47 202.022 12.61C202.162 12.73 202.232 12.89 202.232 13.09V14.32C202.232 14.52 202.162 14.68 202.022 14.8C201.902 14.92 201.742 14.98 201.542 14.98H199.742C198.662 14.98 197.812 15.3 197.192 15.94C196.572 16.56 196.262 17.41 196.262 18.49V27.31C196.262 27.51 196.192 27.68 196.052 27.82C195.912 27.94 195.742 28 195.542 28H194.072Z" fill="#CCCCCC"/>
<rect x="214" y="6" width="161" height="24" rx="5" fill="#0098FF"/>
<path d="M235.357 24.15C234.527 24.15 233.807 24.02 233.197 23.76C232.597 23.5 232.137 23.16 231.817 22.74C231.497 22.31 231.327 21.85 231.307 21.36C231.307 21.28 231.337 21.21 231.397 21.15C231.467 21.08 231.547 21.045 231.637 21.045H232.402C232.592 21.045 232.722 21.145 232.792 21.345C232.882 21.765 233.137 22.125 233.557 22.425C233.987 22.725 234.587 22.875 235.357 22.875C236.187 22.875 236.812 22.73 237.232 22.44C237.652 22.14 237.862 21.725 237.862 21.195C237.862 20.855 237.757 20.58 237.547 20.37C237.347 20.16 237.047 19.975 236.647 19.815C236.247 19.655 235.647 19.455 234.847 19.215C234.067 18.995 233.447 18.76 232.987 18.51C232.527 18.26 232.182 17.95 231.952 17.58C231.722 17.21 231.607 16.745 231.607 16.185C231.607 15.645 231.752 15.16 232.042 14.73C232.342 14.3 232.767 13.965 233.317 13.725C233.867 13.475 234.522 13.35 235.282 13.35C236.062 13.35 236.732 13.49 237.292 13.77C237.852 14.04 238.277 14.385 238.567 14.805C238.857 15.225 239.012 15.645 239.032 16.065C239.032 16.145 239.002 16.215 238.942 16.275C238.892 16.335 238.817 16.365 238.717 16.365H237.922C237.712 16.365 237.582 16.27 237.532 16.08C237.472 15.66 237.237 15.315 236.827 15.045C236.417 14.765 235.902 14.625 235.282 14.625C234.602 14.625 234.067 14.755 233.677 15.015C233.287 15.275 233.092 15.66 233.092 16.17C233.092 16.51 233.182 16.79 233.362 17.01C233.552 17.23 233.837 17.425 234.217 17.595C234.597 17.755 235.152 17.94 235.882 18.15C236.732 18.38 237.402 18.62 237.892 18.87C238.382 19.11 238.747 19.415 238.987 19.785C239.227 20.145 239.347 20.605 239.347 21.165C239.347 22.095 238.987 22.825 238.267 23.355C237.547 23.885 236.577 24.15 235.357 24.15ZM244.313 24.15C243.213 24.15 242.358 23.84 241.748 23.22C241.148 22.6 240.828 21.775 240.788 20.745L240.773 20.1L240.788 19.455C240.828 18.435 241.153 17.615 241.763 16.995C242.373 16.365 243.223 16.05 244.313 16.05C245.403 16.05 246.253 16.365 246.863 16.995C247.473 17.615 247.798 18.435 247.838 19.455C247.848 19.565 247.853 19.78 247.853 20.1C247.853 20.42 247.848 20.635 247.838 20.745C247.798 21.775 247.473 22.6 246.863 23.22C246.263 23.84 245.413 24.15 244.313 24.15ZM244.313 22.995C244.943 22.995 245.438 22.795 245.798 22.395C246.168 21.995 246.368 21.42 246.398 20.67C246.408 20.57 246.413 20.38 246.413 20.1C246.413 19.82 246.408 19.63 246.398 19.53C246.368 18.78 246.168 18.205 245.798 17.805C245.438 17.405 244.943 17.205 244.313 17.205C243.683 17.205 243.183 17.405 242.813 17.805C242.443 18.205 242.248 18.78 242.228 19.53L242.213 20.1L242.228 20.67C242.248 21.42 242.443 21.995 242.813 22.395C243.183 22.795 243.683 22.995 244.313 22.995ZM250.768 24C250.668 24 250.583 23.97 250.513 23.91C250.453 23.84 250.423 23.755 250.423 23.655V17.4H249.148C249.048 17.4 248.963 17.37 248.893 17.31C248.833 17.24 248.803 17.155 248.803 17.055V16.545C248.803 16.445 248.833 16.365 248.893 16.305C248.963 16.235 249.048 16.2 249.148 16.2H250.423V15.45C250.423 13.75 251.283 12.9 253.003 12.9H253.903C254.003 12.9 254.083 12.935 254.143 13.005C254.213 13.065 254.248 13.145 254.248 13.245V13.755C254.248 13.855 254.213 13.94 254.143 14.01C254.083 14.07 254.003 14.1 253.903 14.1H253.033C252.583 14.1 252.268 14.22 252.088 14.46C251.908 14.69 251.818 15.045 251.818 15.525V16.2H253.753C253.853 16.2 253.933 16.235 253.993 16.305C254.063 16.365 254.098 16.445 254.098 16.545V17.055C254.098 17.155 254.063 17.24 253.993 17.31C253.933 17.37 253.853 17.4 253.753 17.4H251.818V23.655C251.818 23.755 251.783 23.84 251.713 23.91C251.653 23.97 251.573 24 251.473 24H250.768ZM258.46 24C256.88 24 256.09 23.12 256.09 21.36V17.4H254.92C254.82 17.4 254.735 17.37 254.665 17.31C254.605 17.24 254.575 17.155 254.575 17.055V16.545C254.575 16.445 254.605 16.365 254.665 16.305C254.735 16.235 254.82 16.2 254.92 16.2H256.09V13.695C256.09 13.595 256.12 13.515 256.18 13.455C256.25 13.385 256.335 13.35 256.435 13.35H257.14C257.24 13.35 257.32 13.385 257.38 13.455C257.45 13.515 257.485 13.595 257.485 13.695V16.2H259.345C259.445 16.2 259.525 16.235 259.585 16.305C259.655 16.365 259.69 16.445 259.69 16.545V17.055C259.69 17.155 259.655 17.24 259.585 17.31C259.525 17.37 259.445 17.4 259.345 17.4H257.485V21.255C257.485 21.755 257.57 22.135 257.74 22.395C257.91 22.645 258.19 22.77 258.58 22.77H259.495C259.595 22.77 259.675 22.805 259.735 22.875C259.805 22.935 259.84 23.015 259.84 23.115V23.655C259.84 23.755 259.805 23.84 259.735 23.91C259.675 23.97 259.595 24 259.495 24H258.46ZM263.344 24C263.214 24 263.114 23.97 263.044 23.91C262.974 23.85 262.914 23.755 262.864 23.625L260.734 16.665L260.704 16.515C260.704 16.425 260.734 16.35 260.794 16.29C260.864 16.23 260.939 16.2 261.019 16.2H261.679C261.779 16.2 261.859 16.23 261.919 16.29C261.989 16.34 262.034 16.395 262.054 16.455L263.719 22.11L265.504 16.515C265.524 16.435 265.569 16.365 265.639 16.305C265.709 16.235 265.804 16.2 265.924 16.2H266.434C266.554 16.2 266.649 16.235 266.719 16.305C266.789 16.365 266.834 16.435 266.854 16.515L268.639 22.11L270.304 16.455C270.314 16.405 270.349 16.35 270.409 16.29C270.479 16.23 270.564 16.2 270.664 16.2H271.339C271.419 16.2 271.489 16.23 271.549 16.29C271.609 16.35 271.639 16.425 271.639 16.515L271.609 16.665L269.494 23.625C269.444 23.755 269.384 23.85 269.314 23.91C269.244 23.97 269.139 24 268.999 24H268.414C268.144 24 267.979 23.875 267.919 23.625L266.179 18.255L264.439 23.625C264.359 23.875 264.189 24 263.929 24H263.344ZM275.256 24.15C274.766 24.15 274.311 24.05 273.891 23.85C273.471 23.65 273.136 23.38 272.886 23.04C272.646 22.69 272.526 22.305 272.526 21.885C272.526 21.225 272.796 20.685 273.336 20.265C273.886 19.835 274.626 19.555 275.556 19.425L277.791 19.11V18.675C277.791 17.655 277.206 17.145 276.036 17.145C275.596 17.145 275.236 17.24 274.956 17.43C274.676 17.61 274.466 17.825 274.326 18.075C274.296 18.165 274.256 18.23 274.206 18.27C274.166 18.31 274.106 18.33 274.026 18.33H273.381C273.291 18.33 273.211 18.3 273.141 18.24C273.081 18.17 273.051 18.09 273.051 18C273.061 17.76 273.171 17.49 273.381 17.19C273.601 16.88 273.936 16.615 274.386 16.395C274.836 16.165 275.391 16.05 276.051 16.05C277.171 16.05 277.976 16.315 278.466 16.845C278.956 17.365 279.201 18.015 279.201 18.795V23.655C279.201 23.755 279.166 23.84 279.096 23.91C279.036 23.97 278.956 24 278.856 24H278.166C278.066 24 277.981 23.97 277.911 23.91C277.851 23.84 277.821 23.755 277.821 23.655V23.01C277.601 23.33 277.281 23.6 276.861 23.82C276.441 24.04 275.906 24.15 275.256 24.15ZM275.571 23.025C276.221 23.025 276.751 22.815 277.161 22.395C277.581 21.965 277.791 21.35 277.791 20.55V20.13L276.051 20.385C275.341 20.485 274.806 20.655 274.446 20.895C274.086 21.125 273.906 21.42 273.906 21.78C273.906 22.18 274.071 22.49 274.401 22.71C274.731 22.92 275.121 23.025 275.571 23.025ZM281.702 24C281.602 24 281.517 23.97 281.447 23.91C281.387 23.84 281.357 23.755 281.357 23.655V16.56C281.357 16.46 281.387 16.375 281.447 16.305C281.517 16.235 281.602 16.2 281.702 16.2H282.392C282.492 16.2 282.577 16.235 282.647 16.305C282.717 16.375 282.752 16.46 282.752 16.56V17.22C283.162 16.54 283.862 16.2 284.852 16.2H285.437C285.537 16.2 285.617 16.235 285.677 16.305C285.747 16.365 285.782 16.445 285.782 16.545V17.16C285.782 17.26 285.747 17.34 285.677 17.4C285.617 17.46 285.537 17.49 285.437 17.49H284.537C283.997 17.49 283.572 17.65 283.262 17.97C282.952 18.28 282.797 18.705 282.797 19.245V23.655C282.797 23.755 282.762 23.84 282.692 23.91C282.622 23.97 282.537 24 282.437 24H281.702ZM290.029 24.15C288.999 24.15 288.174 23.835 287.554 23.205C286.944 22.565 286.609 21.695 286.549 20.595L286.534 20.085L286.549 19.59C286.619 18.51 286.959 17.65 287.569 17.01C288.189 16.37 289.004 16.05 290.014 16.05C291.124 16.05 291.984 16.405 292.594 17.115C293.204 17.815 293.509 18.765 293.509 19.965V20.22C293.509 20.32 293.474 20.405 293.404 20.475C293.344 20.535 293.264 20.565 293.164 20.565H287.974V20.7C288.004 21.35 288.199 21.905 288.559 22.365C288.929 22.815 289.414 23.04 290.014 23.04C290.474 23.04 290.849 22.95 291.139 22.77C291.439 22.58 291.659 22.385 291.799 22.185C291.889 22.065 291.954 21.995 291.994 21.975C292.044 21.945 292.129 21.93 292.249 21.93H292.984C293.074 21.93 293.149 21.955 293.209 22.005C293.269 22.055 293.299 22.125 293.299 22.215C293.299 22.435 293.159 22.7 292.879 23.01C292.609 23.32 292.224 23.59 291.724 23.82C291.234 24.04 290.669 24.15 290.029 24.15ZM292.084 19.53V19.485C292.084 18.795 291.894 18.235 291.514 17.805C291.144 17.365 290.644 17.145 290.014 17.145C289.384 17.145 288.884 17.365 288.514 17.805C288.154 18.235 287.974 18.795 287.974 19.485V19.53H292.084ZM299.519 24C299.419 24 299.334 23.97 299.264 23.91C299.204 23.84 299.174 23.755 299.174 23.655V13.86C299.174 13.75 299.204 13.665 299.264 13.605C299.334 13.535 299.419 13.5 299.519 13.5H305.714C305.814 13.5 305.894 13.535 305.954 13.605C306.024 13.665 306.059 13.75 306.059 13.86V14.43C306.059 14.53 306.029 14.615 305.969 14.685C305.909 14.745 305.824 14.775 305.714 14.775H300.614V18.06H305.384C305.484 18.06 305.564 18.095 305.624 18.165C305.694 18.225 305.729 18.31 305.729 18.42V18.975C305.729 19.075 305.694 19.16 305.624 19.23C305.564 19.29 305.484 19.32 305.384 19.32H300.614V22.725H305.834C305.944 22.725 306.029 22.755 306.089 22.815C306.149 22.875 306.179 22.96 306.179 23.07V23.655C306.179 23.755 306.144 23.84 306.074 23.91C306.014 23.97 305.934 24 305.834 24H299.519ZM308.421 24C308.321 24 308.236 23.97 308.166 23.91C308.106 23.84 308.076 23.755 308.076 23.655V16.545C308.076 16.445 308.106 16.365 308.166 16.305C308.236 16.235 308.321 16.2 308.421 16.2H309.126C309.226 16.2 309.306 16.235 309.366 16.305C309.436 16.365 309.471 16.445 309.471 16.545V17.205C309.761 16.835 310.101 16.55 310.491 16.35C310.891 16.15 311.386 16.05 311.976 16.05C312.936 16.05 313.681 16.36 314.211 16.98C314.751 17.59 315.021 18.405 315.021 19.425V23.655C315.021 23.755 314.986 23.84 314.916 23.91C314.856 23.97 314.776 24 314.676 24H313.926C313.826 24 313.741 23.97 313.671 23.91C313.611 23.84 313.581 23.755 313.581 23.655V19.5C313.581 18.79 313.406 18.24 313.056 17.85C312.716 17.46 312.221 17.265 311.571 17.265C310.941 17.265 310.441 17.465 310.071 17.865C309.701 18.255 309.516 18.8 309.516 19.5V23.655C309.516 23.755 309.481 23.84 309.411 23.91C309.351 23.97 309.271 24 309.171 24H308.421ZM320.368 27.3C319.548 27.3 318.888 27.16 318.388 26.88C317.888 26.61 317.533 26.3 317.323 25.95C317.113 25.6 316.998 25.285 316.978 25.005C316.968 24.905 316.998 24.82 317.068 24.75C317.148 24.68 317.233 24.645 317.323 24.645H318.042C318.133 24.645 318.208 24.665 318.267 24.705C318.328 24.755 318.378 24.84 318.418 24.96C318.538 25.28 318.733 25.555 319.003 25.785C319.283 26.025 319.713 26.145 320.293 26.145C321.033 26.145 321.578 25.985 321.928 25.665C322.278 25.355 322.453 24.8 322.453 24V22.98C322.193 23.31 321.863 23.575 321.463 23.775C321.063 23.965 320.588 24.06 320.038 24.06C318.978 24.06 318.183 23.725 317.653 23.055C317.133 22.375 316.858 21.515 316.828 20.475L316.813 20.055L316.828 19.65C316.858 18.62 317.138 17.765 317.668 17.085C318.198 16.395 318.988 16.05 320.038 16.05C321.088 16.05 321.908 16.435 322.498 17.205V16.56C322.498 16.46 322.528 16.375 322.588 16.305C322.658 16.235 322.743 16.2 322.843 16.2H323.533C323.633 16.2 323.718 16.235 323.788 16.305C323.858 16.375 323.893 16.46 323.893 16.56V23.835C323.893 26.145 322.718 27.3 320.368 27.3ZM320.338 22.86C321.018 22.86 321.533 22.635 321.883 22.185C322.233 21.735 322.423 21.2 322.453 20.58C322.463 20.49 322.468 20.315 322.468 20.055C322.468 19.805 322.463 19.635 322.453 19.545C322.423 18.925 322.233 18.39 321.883 17.94C321.543 17.49 321.028 17.265 320.338 17.265C319.628 17.265 319.113 17.485 318.793 17.925C318.473 18.365 318.298 18.945 318.267 19.665L318.253 20.055L318.267 20.46C318.298 21.17 318.473 21.75 318.793 22.2C319.113 22.64 319.628 22.86 320.338 22.86ZM326.348 14.745C326.248 14.745 326.163 14.715 326.093 14.655C326.033 14.585 326.003 14.5 326.003 14.4V13.59C326.003 13.49 326.033 13.405 326.093 13.335C326.163 13.265 326.248 13.23 326.348 13.23H327.293C327.393 13.23 327.478 13.265 327.548 13.335C327.618 13.405 327.653 13.49 327.653 13.59V14.4C327.653 14.5 327.618 14.585 327.548 14.655C327.478 14.715 327.393 14.745 327.293 14.745H326.348ZM326.468 24C326.368 24 326.283 23.97 326.213 23.91C326.153 23.84 326.123 23.755 326.123 23.655V16.545C326.123 16.445 326.153 16.365 326.213 16.305C326.283 16.235 326.368 16.2 326.468 16.2H327.188C327.288 16.2 327.368 16.235 327.428 16.305C327.498 16.365 327.533 16.445 327.533 16.545V23.655C327.533 23.755 327.498 23.84 327.428 23.91C327.368 23.97 327.288 24 327.188 24H326.468ZM330.101 24C330.001 24 329.916 23.97 329.846 23.91C329.786 23.84 329.756 23.755 329.756 23.655V16.545C329.756 16.445 329.786 16.365 329.846 16.305C329.916 16.235 330.001 16.2 330.101 16.2H330.806C330.906 16.2 330.986 16.235 331.046 16.305C331.116 16.365 331.151 16.445 331.151 16.545V17.205C331.441 16.835 331.781 16.55 332.171 16.35C332.571 16.15 333.066 16.05 333.656 16.05C334.616 16.05 335.361 16.36 335.891 16.98C336.431 17.59 336.701 18.405 336.701 19.425V23.655C336.701 23.755 336.666 23.84 336.596 23.91C336.536 23.97 336.456 24 336.356 24H335.606C335.506 24 335.421 23.97 335.351 23.91C335.291 23.84 335.261 23.755 335.261 23.655V19.5C335.261 18.79 335.086 18.24 334.736 17.85C334.396 17.46 333.901 17.265 333.251 17.265C332.621 17.265 332.121 17.465 331.751 17.865C331.381 18.255 331.196 18.8 331.196 19.5V23.655C331.196 23.755 331.161 23.84 331.091 23.91C331.031 23.97 330.951 24 330.851 24H330.101ZM341.972 24.15C340.942 24.15 340.117 23.835 339.497 23.205C338.887 22.565 338.552 21.695 338.492 20.595L338.477 20.085L338.492 19.59C338.562 18.51 338.902 17.65 339.512 17.01C340.132 16.37 340.947 16.05 341.957 16.05C343.067 16.05 343.927 16.405 344.537 17.115C345.147 17.815 345.452 18.765 345.452 19.965V20.22C345.452 20.32 345.417 20.405 345.347 20.475C345.287 20.535 345.207 20.565 345.107 20.565H339.917V20.7C339.947 21.35 340.142 21.905 340.502 22.365C340.872 22.815 341.357 23.04 341.957 23.04C342.417 23.04 342.792 22.95 343.082 22.77C343.382 22.58 343.602 22.385 343.742 22.185C343.832 22.065 343.897 21.995 343.937 21.975C343.987 21.945 344.072 21.93 344.192 21.93H344.927C345.017 21.93 345.092 21.955 345.152 22.005C345.212 22.055 345.242 22.125 345.242 22.215C345.242 22.435 345.102 22.7 344.822 23.01C344.552 23.32 344.167 23.59 343.667 23.82C343.177 24.04 342.612 24.15 341.972 24.15ZM344.027 19.53V19.485C344.027 18.795 343.837 18.235 343.457 17.805C343.087 17.365 342.587 17.145 341.957 17.145C341.327 17.145 340.827 17.365 340.457 17.805C340.097 18.235 339.917 18.795 339.917 19.485V19.53H344.027ZM350.366 24.15C349.336 24.15 348.511 23.835 347.891 23.205C347.281 22.565 346.946 21.695 346.886 20.595L346.871 20.085L346.886 19.59C346.956 18.51 347.296 17.65 347.906 17.01C348.526 16.37 349.341 16.05 350.351 16.05C351.461 16.05 352.321 16.405 352.931 17.115C353.541 17.815 353.846 18.765 353.846 19.965V20.22C353.846 20.32 353.811 20.405 353.741 20.475C353.681 20.535 353.601 20.565 353.501 20.565H348.311V20.7C348.341 21.35 348.536 21.905 348.896 22.365C349.266 22.815 349.751 23.04 350.351 23.04C350.811 23.04 351.186 22.95 351.476 22.77C351.776 22.58 351.996 22.385 352.136 22.185C352.226 22.065 352.291 21.995 352.331 21.975C352.381 21.945 352.466 21.93 352.586 21.93H353.321C353.411 21.93 353.486 21.955 353.546 22.005C353.606 22.055 353.636 22.125 353.636 22.215C353.636 22.435 353.496 22.7 353.216 23.01C352.946 23.32 352.561 23.59 352.061 23.82C351.571 24.04 351.006 24.15 350.366 24.15ZM352.421 19.53V19.485C352.421 18.795 352.231 18.235 351.851 17.805C351.481 17.365 350.981 17.145 350.351 17.145C349.721 17.145 349.221 17.365 348.851 17.805C348.491 18.235 348.311 18.795 348.311 19.485V19.53H352.421ZM355.984 24C355.884 24 355.799 23.97 355.729 23.91C355.669 23.84 355.639 23.755 355.639 23.655V16.56C355.639 16.46 355.669 16.375 355.729 16.305C355.799 16.235 355.884 16.2 355.984 16.2H356.674C356.774 16.2 356.859 16.235 356.929 16.305C356.999 16.375 357.034 16.46 357.034 16.56V17.22C357.444 16.54 358.144 16.2 359.134 16.2H359.719C359.819 16.2 359.899 16.235 359.959 16.305C360.029 16.365 360.064 16.445 360.064 16.545V17.16C360.064 17.26 360.029 17.34 359.959 17.4C359.899 17.46 359.819 17.49 359.719 17.49H358.819C358.279 17.49 357.854 17.65 357.544 17.97C357.234 18.28 357.079 18.705 357.079 19.245V23.655C357.079 23.755 357.044 23.84 356.974 23.91C356.904 23.97 356.819 24 356.719 24H355.984Z" fill="white"/>
</svg>
