<svg width="21" height="24" viewBox="0 0 21 24" fill="none" xmlns="http://www.w3.org/2000/svg">
<path d="M10.43 24C10.1171 24 9.79946 23.9143 9.5239 23.7524L6.64195 22.0141C6.21226 21.7665 6.42242 21.6808 6.56258 21.6331C7.13704 21.4283 7.25381 21.3856 7.86567 21.0283C7.93112 20.9903 8.0152 21.0045 8.08055 21.0474L10.2945 22.3856C10.374 22.4332 10.486 22.4332 10.5607 22.3856L19.1879 17.3088C19.2674 17.2612 19.3187 17.166 19.3187 17.0708V6.91735C19.3187 6.81733 19.2674 6.72686 19.1833 6.67453L10.5608 1.60253C10.4814 1.55489 10.374 1.55489 10.2946 1.60253L1.6768 6.67923C1.59267 6.72686 1.54135 6.82208 1.54135 6.9221V17.0708C1.54135 17.166 1.59267 17.2612 1.6768 17.3041L4.04032 18.6947C5.32484 19.3471 6.10951 18.5804 6.10951 17.8042V7.78407C6.10951 7.64122 6.22158 7.5317 6.36179 7.5317H7.45477C7.59022 7.5317 7.70694 7.64122 7.70694 7.78407V17.809C7.70694 19.5519 6.77275 20.5521 5.15203 20.5521C4.65219 20.5521 4.25985 20.5521 3.16687 19.9997L0.906151 18.6709C0.345615 18.3423 0 17.7279 0 17.0661V6.91735C0 6.26017 0.345615 5.64107 0.906151 5.31248L9.5239 0.235723C10.0704 -0.0785743 10.7944 -0.0785743 11.3362 0.235723L19.9635 5.31717C20.524 5.64576 20.8696 6.26011 20.8696 6.9221V17.0708C20.8696 17.7279 20.524 18.3423 19.9635 18.6757L11.3362 23.7524C11.0606 23.9143 10.7476 24 10.43 24ZM17.3944 13.9943C17.3944 12.0941 16.1333 11.5893 13.4849 11.2322C10.8037 10.8702 10.5329 10.6844 10.5329 10.0463C10.5329 9.51771 10.7617 8.81284 12.7469 8.81284C14.5172 8.81284 15.1711 9.20336 15.442 10.4226C15.4654 10.5368 15.5682 10.6226 15.6848 10.6226H16.806C16.876 10.6226 16.9414 10.594 16.9881 10.5416C17.0349 10.4892 17.0582 10.4178 17.0534 10.3463C16.8807 8.24618 15.512 7.26984 12.7469 7.26984C10.2853 7.26984 8.8187 8.3271 8.8187 10.1035C8.8187 12.0274 10.2806 12.5609 12.6394 12.7989C15.4654 13.08 15.6848 13.5038 15.6848 14.0705C15.6848 15.0517 14.9096 15.4706 13.0926 15.4706C10.8085 15.4706 10.3087 14.8849 10.1405 13.7277C10.1218 13.6039 10.019 13.5134 9.893 13.5134H8.77658C8.63648 13.5134 8.52912 13.6277 8.52912 13.7657C8.52912 15.247 9.31849 17.0138 13.0973 17.0138C15.825 17.009 17.3944 15.9087 17.3944 13.9943Z" fill="#539E43"/>
</svg>
