<svg width="27" height="25" viewBox="0 0 27 25" fill="none" xmlns="http://www.w3.org/2000/svg">
<path fill-rule="evenodd" clip-rule="evenodd" d="M21.3303 7.51219C21.6223 7.59616 21.9121 7.68748 22.1995 7.78606C25.1156 8.78992 27 10.3624 27 11.9884C27 13.6841 24.9862 15.342 21.8909 16.3675C21.7273 16.4218 21.5596 16.4739 21.3888 16.5243C21.4497 16.7695 21.5041 17.0103 21.5507 17.246C22.1618 20.3326 21.6912 22.8696 20.243 23.7079C18.8407 24.5196 16.5744 23.7223 14.2797 21.7477C14.0303 21.5325 13.7869 21.3104 13.5498 21.0817C13.3616 21.2637 13.1737 21.4373 12.9864 21.601C10.6174 23.6718 8.1845 24.531 6.73494 23.6951C5.33151 22.8856 4.89046 20.5241 5.45518 17.5499C5.51689 17.2267 5.58762 16.9052 5.66728 16.586C5.42206 16.516 5.17861 16.4399 4.93718 16.3577C1.95967 15.3401 0 13.6617 0 11.9884C0 10.3683 1.8256 8.80629 4.6841 7.80972C5.00362 7.69835 5.3376 7.59368 5.68341 7.49546C5.60933 7.1991 5.54279 6.90091 5.48386 6.60118C4.89154 3.57444 5.30833 1.15555 6.71547 0.340974C8.18295 -0.508496 10.6269 0.403708 13.0652 2.56867C13.2168 2.70363 13.366 2.84139 13.5125 2.98187C13.7314 2.7706 13.9556 2.56489 14.1848 2.36493C16.5113 0.340377 18.8149 -0.506584 20.2234 0.305724C21.6924 1.15269 22.1226 3.72559 21.4646 6.91938C21.4235 7.11779 21.3788 7.31543 21.3303 7.51219ZM21.0746 15.4146C21.229 15.3688 21.3805 15.3216 21.5281 15.2727H21.5282C24.2007 14.3872 25.8467 13.0321 25.8467 11.9884C25.8467 11.0085 24.3227 9.73677 21.8241 8.87679C21.5658 8.78776 21.2976 8.70352 21.0215 8.62346C20.6893 9.6983 20.246 10.8338 19.7074 11.9941C20.2717 13.1825 20.7329 14.3328 21.0746 15.4146ZM20.549 21.0336C20.728 20.0689 20.6894 18.8349 20.4192 17.4701C20.3771 17.257 20.3281 17.0392 20.2731 16.8169C19.1548 17.0754 17.9216 17.2648 16.6163 17.3806C15.8742 18.4548 15.1139 19.4222 14.3531 20.2544C14.5804 20.473 14.807 20.6798 15.032 20.8733C16.9943 22.562 18.8141 23.2022 19.665 22.7097C20.0648 22.4782 20.3882 21.9004 20.549 21.0336ZM7.31129 22.6958C7.71147 22.9266 8.37357 22.9182 9.20488 22.6246H9.205C10.1301 22.2978 11.1798 21.6482 12.2274 20.7325C12.4028 20.5788 12.5743 20.4209 12.7419 20.2588C11.9534 19.4127 11.1711 18.4464 10.4242 17.3953C9.11574 17.2892 7.89154 17.1132 6.78564 16.8685C6.71164 17.1655 6.6459 17.4644 6.58848 17.765C6.10561 20.3084 6.45955 22.2047 7.31129 22.6958ZM2.16117 13.5934C2.90644 14.2315 3.9937 14.8163 5.31027 15.2663C5.5307 15.3413 5.75294 15.4108 5.9768 15.4749C6.31783 14.363 6.76736 13.1957 7.30914 12.0164C6.77429 10.8545 6.33109 9.70547 5.99317 8.60649C5.68062 8.69487 5.37072 8.79238 5.06388 8.89889C2.61918 9.75123 1.15337 11.0053 1.15337 11.9884C1.15337 12.4504 1.49153 13.0198 2.16117 13.5934ZM7.29336 1.33921C6.44533 1.83009 6.10836 3.7863 6.61584 6.37964V6.37952C6.6707 6.65833 6.73258 6.93572 6.80141 7.21142C7.91891 6.95822 9.1345 6.76918 10.4043 6.65148C11.1448 5.6064 11.92 4.64748 12.7043 3.80518C12.5689 3.67577 12.4338 3.55066 12.2993 3.43116C10.194 1.56195 8.19672 0.816315 7.29336 1.33921ZM17.4414 7.90519C17.7247 8.34933 17.9984 8.79953 18.2624 9.25546C18.5306 9.71857 18.7896 10.187 19.0391 10.6604C19.3806 9.86104 19.6706 9.08124 19.9033 8.33549C19.1282 8.15852 18.3029 8.01393 17.4414 7.90519ZM15.1018 6.54752C14.5777 5.84933 14.0449 5.20574 13.5129 4.62943C12.9726 5.21244 12.4352 5.85507 11.9107 6.54681C12.9738 6.49705 14.0387 6.49729 15.1018 6.54752ZM7.97088 10.6596C8.21403 10.1883 8.46814 9.72277 8.73301 9.26334C8.99823 8.80349 9.27421 8.34994 9.56073 7.90304C8.70481 8.00999 7.8833 8.15087 7.11293 8.3233C7.34761 9.07968 7.63499 9.86296 7.97088 10.6596ZM7.09704 15.756C7.86717 15.9236 8.7011 16.0573 9.58535 16.156C9.29181 15.7006 9.00917 15.2383 8.73767 14.7694C8.47159 14.3098 8.21637 13.844 7.9722 13.3723C7.62914 14.1861 7.33542 14.9862 7.09704 15.756ZM11.9203 17.4847C12.4529 18.1864 12.9982 18.8389 13.5448 19.4288C14.0732 18.847 14.6041 18.1936 15.1299 17.479C14.5945 17.5029 14.0504 17.5152 13.5 17.5152C12.9643 17.5152 12.4373 17.505 11.9203 17.4847ZM19.9568 15.706C19.7152 14.9493 19.411 14.1534 19.0501 13.3309C18.7997 13.8135 18.5387 14.2904 18.2671 14.7614C17.9999 15.2248 17.7235 15.6829 17.4381 16.1353C18.3287 16.0285 19.1739 15.8846 19.9568 15.706ZM15.9726 16.2752C16.4269 15.5927 16.8589 14.8957 17.2679 14.1852H17.268C17.6805 13.4707 18.0675 12.7418 18.4281 11.9997C18.0637 11.2652 17.6755 10.5426 17.2642 9.83332C16.8551 9.12586 16.4212 8.43305 15.9632 7.75619C15.1605 7.69501 14.3361 7.66298 13.5002 7.66298C12.6679 7.66298 11.8446 7.69477 11.0416 7.75547C10.579 8.43337 10.1423 9.1286 9.73244 9.83965V9.83942C9.32247 10.5503 8.93939 11.2764 8.584 12.0161C8.94029 12.7556 9.32454 13.4812 9.7359 14.1916C10.1492 14.9057 10.5894 15.6039 11.0555 16.2847C11.8426 16.3357 12.6599 16.3619 13.5 16.3619C14.3436 16.3619 15.1715 16.3324 15.9726 16.2752ZM20.335 6.68661C20.9031 3.92909 20.5514 1.82638 19.6473 1.30492C18.7984 0.815359 16.9354 1.50029 14.9421 3.23508C14.7304 3.41974 14.5234 3.60963 14.3212 3.80458C15.0929 4.63601 15.8616 5.5966 16.6035 6.65304C17.877 6.77253 19.0935 6.96491 20.2136 7.22337C20.2573 7.0452 20.2978 6.86625 20.335 6.68661Z" fill="#53C1DE"/>
<path d="M13.5 9.57737C14.8316 9.57737 15.911 10.6569 15.911 11.9884C15.911 13.32 14.8316 14.3995 13.5 14.3995C12.1685 14.3995 11.089 13.32 11.089 11.9884C11.089 10.6569 12.1685 9.57737 13.5 9.57737Z" fill="#53C1DE"/>
</svg>
