<svg width="19" height="14" viewBox="0 0 19 14" fill="none" xmlns="http://www.w3.org/2000/svg">
<path d="M16.0731 8.04687C15.4198 8.04975 14.8541 8.20727 14.3816 8.44061C14.2096 8.09346 14.0316 7.79019 14.0024 7.56273C13.9675 7.29729 13.9295 7.13985 13.9704 6.82489C14.0113 6.50984 14.1949 6.06362 14.1921 6.0316C14.1892 5.99953 14.1512 5.83909 13.775 5.83617C13.3988 5.83328 13.0751 5.90906 13.0372 6.00822C12.9992 6.10737 12.9264 6.33199 12.8826 6.56529C12.8155 6.90651 12.1301 8.12561 11.7422 8.76138C11.6139 8.51355 11.506 8.29474 11.4827 8.11976C11.4477 7.85432 11.4098 7.69688 11.4506 7.38191C11.4914 7.06687 11.6751 6.62065 11.6722 6.58862C11.6693 6.55656 11.6314 6.39612 11.2552 6.39319C10.879 6.39031 10.5553 6.46609 10.5173 6.56529C10.4794 6.6644 10.4386 6.89774 10.3628 7.1224C10.287 7.34685 9.37407 9.37669 9.13493 9.90461C9.0124 10.1729 8.90748 10.3887 8.83162 10.5346C8.82001 10.5579 8.81124 10.5725 8.8054 10.5842C8.81412 10.5696 8.82001 10.555 8.82001 10.5609C8.75584 10.6862 8.71789 10.7562 8.71789 10.7562V10.7591C8.66829 10.8524 8.61289 10.937 8.58667 10.937C8.56914 10.937 8.53127 10.6921 8.59544 10.3566C8.73246 9.65086 9.05619 8.55438 9.05327 8.51639C9.05035 8.49597 9.11447 8.30643 8.84034 8.20431C8.57498 8.10807 8.47871 8.26852 8.45541 8.26852C8.43211 8.26852 8.41458 8.32688 8.41458 8.32688C8.41458 8.32688 8.70916 7.09029 7.84878 7.09029C7.31217 7.09029 6.5656 7.67946 6.19815 8.21316C5.96774 8.33857 5.46899 8.60978 4.94407 8.89848C4.74283 9.00933 4.53575 9.12301 4.34036 9.23098C4.32579 9.21633 4.3141 9.20175 4.29953 9.18718C3.25545 8.07317 1.32769 7.28572 1.40939 5.78953C1.43853 5.24415 1.62812 3.81225 5.11616 2.07403C7.97428 0.650818 10.2607 1.04164 10.6545 1.91071C11.2202 3.15022 9.43244 5.45711 6.46356 5.78953C5.33197 5.91495 4.73707 5.47749 4.58831 5.3142C4.43372 5.14215 4.41038 5.13335 4.35205 5.16545C4.25578 5.21793 4.31707 5.36961 4.35205 5.46C4.43956 5.69037 4.80408 6.09869 5.42532 6.30284C5.97062 6.48074 7.29764 6.57994 8.90163 5.9587C10.704 5.26457 12.1068 3.33096 11.6956 1.71239C11.2757 0.0675702 8.5488 -0.472005 5.96778 0.443739C4.43083 0.989119 2.76848 1.84658 1.57272 2.96352C0.152423 4.29346 -0.0750312 5.45123 0.0182398 5.9354C0.350736 7.65312 2.71884 8.77306 3.66669 9.6013C3.62001 9.62756 3.57626 9.6509 3.53547 9.67424C3.0601 9.91042 1.25483 10.8553 0.802763 11.8529C0.292451 12.9844 0.887308 13.7951 1.27813 13.906C2.49719 14.2443 3.74543 13.6348 4.41622 12.6344C5.08694 11.6341 5.00532 10.3275 4.6962 9.73256C4.69323 9.72384 4.68743 9.71807 4.68455 9.70922C4.807 9.63637 4.93238 9.56343 5.05784 9.49054C5.29986 9.34763 5.53612 9.21632 5.74316 9.10268C5.62647 9.41768 5.54193 9.79665 5.49817 10.345C5.44569 10.9866 5.7111 11.8178 6.05524 12.1445C6.20684 12.2874 6.39058 12.2903 6.50435 12.2903C6.90682 12.2903 7.0876 11.9578 7.28883 11.5612C7.53674 11.077 7.75547 10.5141 7.75547 10.5141C7.75547 10.5141 7.48134 12.0366 8.23083 12.0366C8.50497 12.0366 8.77918 11.6837 8.90159 11.5028V11.5057C8.90159 11.5057 8.90748 11.4941 8.92205 11.4708C8.95119 11.427 8.96576 11.4008 8.96576 11.4008V11.392C9.07656 11.2024 9.31867 10.7678 9.68315 10.0504C10.1557 9.12297 10.6077 7.96512 10.6077 7.96512C10.6077 7.96512 10.6485 8.2481 10.7886 8.71762C10.8702 8.99467 11.0422 9.29799 11.1793 9.59258C11.0685 9.74421 11.0014 9.83172 11.0014 9.83172C11.0014 9.83172 11.0014 9.8346 11.0042 9.83752C10.9168 9.95425 10.8177 10.0797 10.7156 10.2022C10.3423 10.6454 9.89896 11.1529 9.84067 11.2987C9.77062 11.4708 9.78815 11.599 9.92234 11.6983C10.0215 11.7741 10.1965 11.7857 10.3802 11.7712C10.7156 11.7478 10.9518 11.6662 11.0655 11.6136C11.2463 11.5496 11.4564 11.4474 11.6547 11.3045C12.0192 11.0363 12.2409 10.6513 12.2204 10.1438C12.2088 9.86386 12.1183 9.58385 12.0075 9.32145C12.0396 9.27473 12.0746 9.22509 12.1067 9.17562C12.6842 8.33265 13.1304 7.40826 13.1304 7.40826C13.1304 7.40826 13.1712 7.69107 13.3112 8.16063C13.3812 8.3969 13.5183 8.65646 13.6436 8.91013C13.1012 9.35055 12.7658 9.86098 12.6492 10.1963C12.4333 10.8175 12.6025 11.0974 12.9204 11.1617C13.0633 11.1908 13.2674 11.1237 13.4191 11.0595C13.6086 10.9954 13.8361 10.8933 14.049 10.7358C14.4136 10.4676 14.7665 10.0913 14.7432 9.58093C14.7344 9.35051 14.6703 9.12013 14.5857 8.89848C15.0435 8.70605 15.6386 8.60097 16.3968 8.68852C18.0212 8.87807 18.3391 9.89297 18.2778 10.3158C18.2167 10.7417 17.8755 10.975 17.7617 11.045C17.6479 11.115 17.6129 11.1412 17.6217 11.1937C17.6363 11.2695 17.6887 11.2667 17.785 11.2491C17.9192 11.2258 18.6366 10.9049 18.6686 10.1204C18.7154 9.12882 17.7618 8.03814 16.0731 8.04687ZM3.55296 12.2669C3.01639 12.8531 2.26393 13.0748 1.94024 12.8881C1.59317 12.687 1.73024 11.8237 2.39227 11.1995C2.79474 10.8204 3.31386 10.4704 3.658 10.2546C3.73674 10.208 3.85051 10.138 3.9905 10.0534C4.01383 10.0389 4.02548 10.033 4.02548 10.033C4.0517 10.0155 4.08089 10.0009 4.11007 9.9834C4.35205 10.87 4.11875 11.6516 3.55296 12.2669ZM7.47265 9.6013C7.28599 10.0591 6.89225 11.2258 6.65318 11.1645C6.44903 11.112 6.32357 10.2225 6.61235 9.34763C6.75814 8.90721 7.06726 8.38228 7.25104 8.17817C7.54555 7.84855 7.86928 7.74355 7.94514 7.87481C8.04717 8.04687 7.58926 9.31552 7.47265 9.6013ZM10.7098 11.1471C10.6311 11.1879 10.5582 11.2141 10.5232 11.1937C10.497 11.1791 10.5553 11.1237 10.5553 11.1237C10.5553 11.1237 10.9606 10.6891 11.1211 10.4907C11.2144 10.3741 11.3223 10.237 11.4389 10.0854C11.4389 10.0999 11.4418 10.1146 11.4418 10.132C11.439 10.6542 10.9374 11.0071 10.7098 11.1471ZM13.2063 10.5783C13.148 10.5375 13.1567 10.4004 13.3521 9.97459C13.428 9.80834 13.603 9.5284 13.9062 9.26008C13.9413 9.37088 13.9616 9.47584 13.9616 9.575C13.9587 10.2312 13.4892 10.4762 13.2063 10.5783Z" fill="#CF649A"/>
</svg>
