<svg width="24" height="24" viewBox="0 0 24 24" fill="none" xmlns="http://www.w3.org/2000/svg">
<path d="M0 12V24H24V0H0V12ZM19.3402 11.04C19.915 11.1734 20.4374 11.474 20.8416 11.904C21.0641 12.1356 21.2575 12.3935 21.4176 12.672C21.4176 12.7027 20.3808 13.4035 19.7491 13.7952C19.7261 13.8106 19.6339 13.7107 19.5322 13.559C19.4168 13.3601 19.253 13.1935 19.0559 13.075C18.8588 12.9565 18.6349 12.8899 18.4051 12.8813C17.6774 12.8314 17.209 13.2134 17.2128 13.8413C17.2068 13.9976 17.2426 14.1527 17.3165 14.2906C17.4758 14.6227 17.7734 14.8205 18.7066 15.2237C20.425 15.9629 21.1603 16.4506 21.6173 17.1437C22.128 17.9117 22.2413 19.152 21.8957 20.0698C21.5117 21.0682 20.5709 21.7459 19.2403 21.9706C18.6326 22.0402 18.0186 22.0337 17.4125 21.9514C16.4875 21.8013 15.6342 21.3609 14.976 20.6938C14.7552 20.4499 14.3251 19.8144 14.352 19.7683C14.4221 19.7163 14.4959 19.6694 14.5728 19.6282L15.456 19.1213L16.1453 18.7219L16.2893 18.935C16.5323 19.2827 16.8416 19.5789 17.1994 19.8067C17.9674 20.2099 19.0157 20.1542 19.5341 19.6877C19.7081 19.5167 19.8167 19.2901 19.8409 19.0473C19.8651 18.8046 19.8034 18.561 19.6666 18.359C19.4746 18.0922 19.0906 17.8675 18.0173 17.399C16.7789 16.8653 16.2451 16.535 15.7574 16.009C15.453 15.6618 15.2282 15.2522 15.0989 14.809C15.0024 14.3025 14.9881 13.7839 15.0566 13.273C15.312 12.0768 16.2086 11.2416 17.5181 10.9939C18.1245 10.9189 18.7388 10.9357 19.3402 11.0438V11.04ZM13.7069 12.0461V13.0291H10.5907V21.9053H8.3808V13.0272H5.25696V12.0672C5.24857 11.7367 5.25755 11.406 5.28384 11.0765C5.29536 11.0611 7.20384 11.0534 9.50784 11.0573H13.6954L13.7069 12.0461Z" fill="#007ACC"/>
</svg>
