<svg width="24" height="24" viewBox="0 0 24 24" fill="none" xmlns="http://www.w3.org/2000/svg">
<path d="M4 18.5L11.617 4.21799C11.7775 3.91699 12.2115 3.92249 12.364 4.22799L15 9.49999L4 18.5Z" fill="#FF8F00"/>
<path d="M4 18.496L6.773 1.39649C6.8455 0.948988 7.4465 0.851988 7.6565 1.25399L13 11.496L4 18.496Z" fill="#FFA000"/>
<path d="M4.00403 18.493L4.10403 18.4145L12.8685 11.244L10.3965 6.50601L4.00403 18.493Z" fill="#FF6F00"/>
<path d="M4 18.5L17.333 5.64351C17.6125 5.37401 18.079 5.53301 18.136 5.91701L20 18.5L12.5 22.8715C12.1955 23.0425 11.824 23.0425 11.5195 22.8715L4 18.5Z" fill="#FFC400"/>
</svg>
