<svg width="203" height="63" viewBox="0 0 203 63" fill="none" xmlns="http://www.w3.org/2000/svg">
<path d="M2.85 28C2.63 28 2.45 27.93 2.31 27.79C2.17 27.65 2.1 27.47 2.1 27.25V7.75C2.1 7.53 2.17 7.35 2.31 7.21C2.47 7.07 2.65 7 2.85 7H6.72C6.94 7 7.12 7.07 7.26 7.21C7.42 7.35 7.5 7.53 7.5 7.75V14.98H14.88V7.75C14.88 7.53 14.95 7.35 15.09 7.21C15.23 7.07 15.41 7 15.63 7H19.5C19.72 7 19.9 7.07 20.04 7.21C20.18 7.35 20.25 7.53 20.25 7.75V27.25C20.25 27.47 20.18 27.65 20.04 27.79C19.9 27.93 19.72 28 19.5 28H15.63C15.41 28 15.23 27.93 15.09 27.79C14.95 27.65 14.88 27.47 14.88 27.25V19.78H7.5V27.25C7.5 27.47 7.42 27.65 7.26 27.79C7.12 27.93 6.94 28 6.72 28H2.85ZM29.8535 28.3C28.0935 28.3 26.6735 27.71 25.5935 26.53C24.5135 25.33 23.9735 23.66 23.9735 21.52V13.15C23.9735 12.93 24.0435 12.75 24.1835 12.61C24.3235 12.47 24.5035 12.4 24.7235 12.4H28.4735C28.6935 12.4 28.8735 12.47 29.0135 12.61C29.1735 12.75 29.2535 12.93 29.2535 13.15V21.34C29.2535 23.3 30.1235 24.28 31.8635 24.28C32.7035 24.28 33.3635 24.02 33.8435 23.5C34.3235 22.98 34.5635 22.26 34.5635 21.34V13.15C34.5635 12.93 34.6335 12.75 34.7735 12.61C34.9335 12.47 35.1135 12.4 35.3135 12.4H39.0635C39.2835 12.4 39.4635 12.47 39.6035 12.61C39.7435 12.75 39.8135 12.93 39.8135 13.15V27.25C39.8135 27.45 39.7435 27.63 39.6035 27.79C39.4635 27.93 39.2835 28 39.0635 28H35.5835C35.3835 28 35.2035 27.93 35.0435 27.79C34.9035 27.63 34.8335 27.45 34.8335 27.25V26.11C33.7935 27.57 32.1335 28.3 29.8535 28.3ZM52.8823 28.3C50.8823 28.3 49.3323 27.63 48.2323 26.29V27.25C48.2323 27.45 48.1623 27.63 48.0223 27.79C47.8823 27.93 47.7023 28 47.4823 28H44.0923C43.8923 28 43.7123 27.93 43.5523 27.79C43.4123 27.63 43.3423 27.45 43.3423 27.25V7.45C43.3423 7.23 43.4123 7.05 43.5523 6.91C43.7123 6.77 43.8923 6.7 44.0923 6.7H47.7523C47.9723 6.7 48.1523 6.77 48.2923 6.91C48.4323 7.05 48.5023 7.23 48.5023 7.45V13.87C49.6223 12.69 51.0823 12.1 52.8823 12.1C54.8223 12.1 56.3523 12.73 57.4723 13.99C58.5923 15.25 59.1923 16.96 59.2723 19.12C59.2923 19.38 59.3023 19.74 59.3023 20.2C59.3023 20.64 59.2923 20.99 59.2723 21.25C59.1723 23.49 58.5723 25.23 57.4723 26.47C56.3723 27.69 54.8423 28.3 52.8823 28.3ZM51.2623 24.28C52.2023 24.28 52.8723 24 53.2723 23.44C53.6923 22.88 53.9323 22.11 53.9923 21.13C54.0323 20.73 54.0523 20.42 54.0523 20.2C54.0523 19.98 54.0323 19.67 53.9923 19.27C53.9323 18.29 53.6923 17.52 53.2723 16.96C52.8723 16.4 52.2023 16.12 51.2623 16.12C50.3823 16.12 49.7123 16.39 49.2523 16.93C48.7923 17.47 48.5423 18.15 48.5023 18.97L48.4723 20.08L48.5023 21.22C48.5623 22.12 48.8023 22.86 49.2223 23.44C49.6623 24 50.3423 24.28 51.2623 24.28ZM69.468 28.3C67.068 28.3 65.178 27.65 63.798 26.35C62.418 25.05 61.698 23.16 61.638 20.68V19.63C61.718 17.27 62.448 15.43 63.828 14.11C65.228 12.77 67.098 12.1 69.438 12.1C71.138 12.1 72.568 12.45 73.728 13.15C74.908 13.83 75.788 14.77 76.368 15.97C76.968 17.17 77.268 18.55 77.268 20.11V20.83C77.268 21.03 77.198 21.21 77.058 21.37C76.918 21.51 76.738 21.58 76.518 21.58H66.918V21.79C66.958 22.73 67.188 23.49 67.608 24.07C68.028 24.65 68.638 24.94 69.438 24.94C69.938 24.94 70.348 24.84 70.668 24.64C70.988 24.42 71.278 24.16 71.538 23.86C71.718 23.64 71.858 23.51 71.958 23.47C72.078 23.41 72.258 23.38 72.498 23.38H76.218C76.398 23.38 76.548 23.44 76.668 23.56C76.808 23.66 76.878 23.8 76.878 23.98C76.878 24.5 76.578 25.1 75.978 25.78C75.398 26.46 74.548 27.05 73.428 27.55C72.308 28.05 70.988 28.3 69.468 28.3ZM71.988 18.61V18.55C71.988 17.57 71.758 16.8 71.298 16.24C70.858 15.66 70.238 15.37 69.438 15.37C68.658 15.37 68.038 15.66 67.578 16.24C67.138 16.8 66.918 17.57 66.918 18.55V18.61H71.988ZM80.8305 28C80.6105 28 80.4305 27.93 80.2905 27.79C80.1505 27.65 80.0805 27.47 80.0805 27.25V13.15C80.0805 12.93 80.1505 12.75 80.2905 12.61C80.4305 12.47 80.6105 12.4 80.8305 12.4H84.2805C84.5005 12.4 84.6805 12.48 84.8205 12.64C84.9805 12.78 85.0605 12.95 85.0605 13.15V14.35C86.1605 13.05 87.6405 12.4 89.5005 12.4H90.8205C91.0405 12.4 91.2205 12.47 91.3605 12.61C91.5005 12.75 91.5705 12.93 91.5705 13.15V16.24C91.5705 16.44 91.5005 16.62 91.3605 16.78C91.2205 16.92 91.0405 16.99 90.8205 16.99H87.9105C87.0905 16.99 86.4505 17.22 85.9905 17.68C85.5505 18.12 85.3305 18.75 85.3305 19.57V27.25C85.3305 27.47 85.2505 27.65 85.0905 27.79C84.9505 27.93 84.7705 28 84.5505 28H80.8305ZM101.684 28C97.5436 28 95.4736 26.03 95.4736 22.09V16.33H93.1336C92.9136 16.33 92.7236 16.26 92.5636 16.12C92.4236 15.98 92.3536 15.8 92.3536 15.58V13.15C92.3536 12.93 92.4236 12.75 92.5636 12.61C92.7236 12.47 92.9136 12.4 93.1336 12.4H95.4736V7.45C95.4736 7.23 95.5436 7.05 95.6836 6.91C95.8436 6.77 96.0236 6.7 96.2236 6.7H99.7036C99.9236 6.7 100.104 6.77 100.244 6.91C100.384 7.05 100.454 7.23 100.454 7.45V12.4H104.204C104.424 12.4 104.604 12.47 104.744 12.61C104.904 12.75 104.984 12.93 104.984 13.15V15.58C104.984 15.8 104.904 15.98 104.744 16.12C104.604 16.26 104.424 16.33 104.204 16.33H100.454V21.67C100.454 23.15 101.024 23.89 102.164 23.89H104.474C104.694 23.89 104.874 23.96 105.014 24.1C105.154 24.24 105.224 24.42 105.224 24.64V27.25C105.224 27.45 105.154 27.63 105.014 27.79C104.874 27.93 104.694 28 104.474 28H101.684Z" fill="white"/>
<path d="M116.591 28C116.391 28 116.221 27.94 116.081 27.82C115.961 27.68 115.901 27.51 115.901 27.31V7.72C115.901 7.5 115.961 7.33 116.081 7.21C116.221 7.07 116.391 7 116.591 7H118.091C118.411 7 118.671 7.16 118.871 7.48L125.201 19.6L131.591 7.48C131.631 7.36 131.711 7.25 131.831 7.15C131.971 7.05 132.141 7 132.341 7H133.811C134.031 7 134.201 7.07 134.321 7.21C134.461 7.33 134.531 7.5 134.531 7.72V27.31C134.531 27.51 134.461 27.68 134.321 27.82C134.181 27.94 134.011 28 133.811 28H132.341C132.141 28 131.971 27.94 131.831 27.82C131.711 27.68 131.651 27.51 131.651 27.31V12.55L126.641 22.33C126.441 22.75 126.121 22.96 125.681 22.96H124.751C124.311 22.96 123.991 22.75 123.791 22.33L118.751 12.55V27.31C118.751 27.51 118.681 27.68 118.541 27.82C118.421 27.94 118.261 28 118.061 28H116.591ZM147.039 28.3C144.879 28.3 143.239 27.55 142.119 26.05V27.31C142.119 27.51 142.049 27.68 141.909 27.82C141.789 27.94 141.629 28 141.429 28H140.049C139.849 28 139.679 27.94 139.539 27.82C139.419 27.68 139.359 27.51 139.359 27.31V7.39C139.359 7.19 139.419 7.03 139.539 6.91C139.679 6.77 139.849 6.7 140.049 6.7H141.519C141.719 6.7 141.879 6.77 141.999 6.91C142.119 7.03 142.179 7.19 142.179 7.39V14.29C143.359 12.83 144.979 12.1 147.039 12.1C149.119 12.1 150.689 12.79 151.749 14.17C152.809 15.53 153.379 17.24 153.459 19.3C153.479 19.52 153.489 19.82 153.489 20.2C153.489 20.58 153.479 20.88 153.459 21.1C153.379 23.18 152.809 24.9 151.749 26.26C150.689 27.62 149.119 28.3 147.039 28.3ZM146.409 25.87C147.829 25.87 148.859 25.43 149.499 24.55C150.159 23.67 150.519 22.51 150.579 21.07C150.599 20.87 150.609 20.58 150.609 20.2C150.609 16.42 149.209 14.53 146.409 14.53C145.069 14.53 144.039 14.97 143.319 15.85C142.599 16.73 142.219 17.76 142.179 18.94L142.149 20.11L142.179 21.25C142.239 22.51 142.609 23.6 143.289 24.52C143.989 25.42 145.029 25.87 146.409 25.87ZM157.621 9.49C157.421 9.49 157.251 9.43 157.111 9.31C156.991 9.17 156.931 9 156.931 8.8V7.18C156.931 6.98 156.991 6.81 157.111 6.67C157.251 6.53 157.421 6.46 157.621 6.46H159.511C159.711 6.46 159.881 6.53 160.021 6.67C160.161 6.81 160.231 6.98 160.231 7.18V8.8C160.231 9 160.161 9.17 160.021 9.31C159.881 9.43 159.711 9.49 159.511 9.49H157.621ZM157.861 28C157.661 28 157.491 27.94 157.351 27.82C157.231 27.68 157.171 27.51 157.171 27.31V13.09C157.171 12.89 157.231 12.73 157.351 12.61C157.491 12.47 157.661 12.4 157.861 12.4H159.301C159.501 12.4 159.661 12.47 159.781 12.61C159.921 12.73 159.991 12.89 159.991 13.09V27.31C159.991 27.51 159.921 27.68 159.781 27.82C159.661 27.94 159.501 28 159.301 28H157.861ZM170.527 28C167.367 28 165.787 26.24 165.787 22.72V14.8H163.447C163.247 14.8 163.077 14.74 162.937 14.62C162.817 14.48 162.757 14.31 162.757 14.11V13.09C162.757 12.89 162.817 12.73 162.937 12.61C163.077 12.47 163.247 12.4 163.447 12.4H165.787V7.39C165.787 7.19 165.847 7.03 165.967 6.91C166.107 6.77 166.277 6.7 166.477 6.7H167.887C168.087 6.7 168.247 6.77 168.367 6.91C168.507 7.03 168.577 7.19 168.577 7.39V12.4H172.297C172.497 12.4 172.657 12.47 172.777 12.61C172.917 12.73 172.987 12.89 172.987 13.09V14.11C172.987 14.31 172.917 14.48 172.777 14.62C172.657 14.74 172.497 14.8 172.297 14.8H168.577V22.51C168.577 23.51 168.747 24.27 169.087 24.79C169.427 25.29 169.987 25.54 170.767 25.54H172.597C172.797 25.54 172.957 25.61 173.077 25.75C173.217 25.87 173.287 26.03 173.287 26.23V27.31C173.287 27.51 173.217 27.68 173.077 27.82C172.957 27.94 172.797 28 172.597 28H170.527ZM182.546 28.3C180.346 28.3 178.636 27.68 177.416 26.44C176.216 25.2 175.576 23.55 175.496 21.49L175.466 20.2L175.496 18.91C175.576 16.87 176.226 15.23 177.446 13.99C178.666 12.73 180.366 12.1 182.546 12.1C184.726 12.1 186.426 12.73 187.646 13.99C188.866 15.23 189.516 16.87 189.596 18.91C189.616 19.13 189.626 19.56 189.626 20.2C189.626 20.84 189.616 21.27 189.596 21.49C189.516 23.55 188.866 25.2 187.646 26.44C186.446 27.68 184.746 28.3 182.546 28.3ZM182.546 25.99C183.806 25.99 184.796 25.59 185.516 24.79C186.256 23.99 186.656 22.84 186.716 21.34C186.736 21.14 186.746 20.76 186.746 20.2C186.746 19.64 186.736 19.26 186.716 19.06C186.656 17.56 186.256 16.41 185.516 15.61C184.796 14.81 183.806 14.41 182.546 14.41C181.286 14.41 180.286 14.81 179.546 15.61C178.806 16.41 178.416 17.56 178.376 19.06L178.346 20.2L178.376 21.34C178.416 22.84 178.806 23.99 179.546 24.79C180.286 25.59 181.286 25.99 182.546 25.99ZM194.072 28C193.872 28 193.702 27.94 193.562 27.82C193.442 27.68 193.382 27.51 193.382 27.31V13.12C193.382 12.92 193.442 12.75 193.562 12.61C193.702 12.47 193.872 12.4 194.072 12.4H195.452C195.652 12.4 195.822 12.47 195.962 12.61C196.102 12.75 196.172 12.92 196.172 13.12V14.44C196.992 13.08 198.392 12.4 200.372 12.4H201.542C201.742 12.4 201.902 12.47 202.022 12.61C202.162 12.73 202.232 12.89 202.232 13.09V14.32C202.232 14.52 202.162 14.68 202.022 14.8C201.902 14.92 201.742 14.98 201.542 14.98H199.742C198.662 14.98 197.812 15.3 197.192 15.94C196.572 16.56 196.262 17.41 196.262 18.49V27.31C196.262 27.51 196.192 27.68 196.052 27.82C195.912 27.94 195.742 28 195.542 28H194.072Z" fill="#CCCCCC"/>
<rect y="39" width="161" height="24" rx="5" fill="#0098FF"/>
<path d="M21.3568 57.15C20.5268 57.15 19.8068 57.02 19.1968 56.76C18.5968 56.5 18.1368 56.16 17.8168 55.74C17.4968 55.31 17.3268 54.85 17.3068 54.36C17.3068 54.28 17.3368 54.21 17.3968 54.15C17.4668 54.08 17.5468 54.045 17.6368 54.045H18.4018C18.5918 54.045 18.7218 54.145 18.7918 54.345C18.8818 54.765 19.1368 55.125 19.5568 55.425C19.9868 55.725 20.5868 55.875 21.3568 55.875C22.1868 55.875 22.8118 55.73 23.2318 55.44C23.6518 55.14 23.8618 54.725 23.8618 54.195C23.8618 53.855 23.7568 53.58 23.5468 53.37C23.3468 53.16 23.0468 52.975 22.6468 52.815C22.2468 52.655 21.6468 52.455 20.8468 52.215C20.0668 51.995 19.4468 51.76 18.9868 51.51C18.5268 51.26 18.1818 50.95 17.9518 50.58C17.7218 50.21 17.6068 49.745 17.6068 49.185C17.6068 48.645 17.7518 48.16 18.0418 47.73C18.3418 47.3 18.7668 46.965 19.3168 46.725C19.8668 46.475 20.5218 46.35 21.2818 46.35C22.0618 46.35 22.7318 46.49 23.2918 46.77C23.8518 47.04 24.2768 47.385 24.5668 47.805C24.8568 48.225 25.0118 48.645 25.0318 49.065C25.0318 49.145 25.0018 49.215 24.9418 49.275C24.8918 49.335 24.8168 49.365 24.7168 49.365H23.9218C23.7118 49.365 23.5818 49.27 23.5318 49.08C23.4718 48.66 23.2368 48.315 22.8268 48.045C22.4168 47.765 21.9018 47.625 21.2818 47.625C20.6018 47.625 20.0668 47.755 19.6768 48.015C19.2868 48.275 19.0918 48.66 19.0918 49.17C19.0918 49.51 19.1818 49.79 19.3618 50.01C19.5518 50.23 19.8368 50.425 20.2168 50.595C20.5968 50.755 21.1518 50.94 21.8818 51.15C22.7318 51.38 23.4018 51.62 23.8918 51.87C24.3818 52.11 24.7468 52.415 24.9868 52.785C25.2268 53.145 25.3468 53.605 25.3468 54.165C25.3468 55.095 24.9868 55.825 24.2668 56.355C23.5468 56.885 22.5768 57.15 21.3568 57.15ZM30.3128 57.15C29.2128 57.15 28.3578 56.84 27.7478 56.22C27.1478 55.6 26.8278 54.775 26.7878 53.745L26.7728 53.1L26.7878 52.455C26.8278 51.435 27.1528 50.615 27.7628 49.995C28.3728 49.365 29.2228 49.05 30.3128 49.05C31.4028 49.05 32.2528 49.365 32.8628 49.995C33.4728 50.615 33.7978 51.435 33.8378 52.455C33.8478 52.565 33.8528 52.78 33.8528 53.1C33.8528 53.42 33.8478 53.635 33.8378 53.745C33.7978 54.775 33.4728 55.6 32.8628 56.22C32.2628 56.84 31.4128 57.15 30.3128 57.15ZM30.3128 55.995C30.9428 55.995 31.4378 55.795 31.7978 55.395C32.1678 54.995 32.3678 54.42 32.3978 53.67C32.4078 53.57 32.4128 53.38 32.4128 53.1C32.4128 52.82 32.4078 52.63 32.3978 52.53C32.3678 51.78 32.1678 51.205 31.7978 50.805C31.4378 50.405 30.9428 50.205 30.3128 50.205C29.6828 50.205 29.1828 50.405 28.8128 50.805C28.4428 51.205 28.2478 51.78 28.2278 52.53L28.2128 53.1L28.2278 53.67C28.2478 54.42 28.4428 54.995 28.8128 55.395C29.1828 55.795 29.6828 55.995 30.3128 55.995ZM36.7682 57C36.6682 57 36.5832 56.97 36.5132 56.91C36.4532 56.84 36.4232 56.755 36.4232 56.655V50.4H35.1482C35.0482 50.4 34.9632 50.37 34.8932 50.31C34.8332 50.24 34.8032 50.155 34.8032 50.055V49.545C34.8032 49.445 34.8332 49.365 34.8932 49.305C34.9632 49.235 35.0482 49.2 35.1482 49.2H36.4232V48.45C36.4232 46.75 37.2832 45.9 39.0032 45.9H39.9032C40.0032 45.9 40.0832 45.935 40.1432 46.005C40.2132 46.065 40.2482 46.145 40.2482 46.245V46.755C40.2482 46.855 40.2132 46.94 40.1432 47.01C40.0832 47.07 40.0032 47.1 39.9032 47.1H39.0332C38.5832 47.1 38.2682 47.22 38.0882 47.46C37.9082 47.69 37.8182 48.045 37.8182 48.525V49.2H39.7532C39.8532 49.2 39.9332 49.235 39.9932 49.305C40.0632 49.365 40.0982 49.445 40.0982 49.545V50.055C40.0982 50.155 40.0632 50.24 39.9932 50.31C39.9332 50.37 39.8532 50.4 39.7532 50.4H37.8182V56.655C37.8182 56.755 37.7832 56.84 37.7132 56.91C37.6532 56.97 37.5732 57 37.4732 57H36.7682ZM44.4597 57C42.8797 57 42.0897 56.12 42.0897 54.36V50.4H40.9197C40.8197 50.4 40.7347 50.37 40.6647 50.31C40.6047 50.24 40.5747 50.155 40.5747 50.055V49.545C40.5747 49.445 40.6047 49.365 40.6647 49.305C40.7347 49.235 40.8197 49.2 40.9197 49.2H42.0897V46.695C42.0897 46.595 42.1197 46.515 42.1797 46.455C42.2497 46.385 42.3347 46.35 42.4347 46.35H43.1397C43.2397 46.35 43.3197 46.385 43.3797 46.455C43.4497 46.515 43.4847 46.595 43.4847 46.695V49.2H45.3447C45.4447 49.2 45.5247 49.235 45.5847 49.305C45.6547 49.365 45.6897 49.445 45.6897 49.545V50.055C45.6897 50.155 45.6547 50.24 45.5847 50.31C45.5247 50.37 45.4447 50.4 45.3447 50.4H43.4847V54.255C43.4847 54.755 43.5697 55.135 43.7397 55.395C43.9097 55.645 44.1897 55.77 44.5797 55.77H45.4947C45.5947 55.77 45.6747 55.805 45.7347 55.875C45.8047 55.935 45.8397 56.015 45.8397 56.115V56.655C45.8397 56.755 45.8047 56.84 45.7347 56.91C45.6747 56.97 45.5947 57 45.4947 57H44.4597ZM49.3441 57C49.2141 57 49.1141 56.97 49.0441 56.91C48.9741 56.85 48.9141 56.755 48.8641 56.625L46.7341 49.665L46.7041 49.515C46.7041 49.425 46.7341 49.35 46.7941 49.29C46.8641 49.23 46.9391 49.2 47.0191 49.2H47.6791C47.7791 49.2 47.8591 49.23 47.9191 49.29C47.9891 49.34 48.0341 49.395 48.0541 49.455L49.7191 55.11L51.5041 49.515C51.5241 49.435 51.5691 49.365 51.6391 49.305C51.7091 49.235 51.8041 49.2 51.9241 49.2H52.4341C52.5541 49.2 52.6491 49.235 52.7191 49.305C52.7891 49.365 52.8341 49.435 52.8541 49.515L54.6391 55.11L56.3041 49.455C56.3141 49.405 56.3491 49.35 56.4091 49.29C56.4791 49.23 56.5641 49.2 56.6641 49.2H57.3391C57.4191 49.2 57.4891 49.23 57.5491 49.29C57.6091 49.35 57.6391 49.425 57.6391 49.515L57.6091 49.665L55.4941 56.625C55.4441 56.755 55.3841 56.85 55.3141 56.91C55.2441 56.97 55.1391 57 54.9991 57H54.4141C54.1441 57 53.9791 56.875 53.9191 56.625L52.1791 51.255L50.4391 56.625C50.3591 56.875 50.1891 57 49.9291 57H49.3441ZM61.2557 57.15C60.7657 57.15 60.3107 57.05 59.8907 56.85C59.4707 56.65 59.1357 56.38 58.8857 56.04C58.6457 55.69 58.5257 55.305 58.5257 54.885C58.5257 54.225 58.7957 53.685 59.3357 53.265C59.8857 52.835 60.6257 52.555 61.5557 52.425L63.7907 52.11V51.675C63.7907 50.655 63.2057 50.145 62.0357 50.145C61.5957 50.145 61.2357 50.24 60.9557 50.43C60.6757 50.61 60.4657 50.825 60.3257 51.075C60.2957 51.165 60.2557 51.23 60.2057 51.27C60.1657 51.31 60.1057 51.33 60.0257 51.33H59.3807C59.2907 51.33 59.2107 51.3 59.1407 51.24C59.0807 51.17 59.0507 51.09 59.0507 51C59.0607 50.76 59.1707 50.49 59.3807 50.19C59.6007 49.88 59.9357 49.615 60.3857 49.395C60.8357 49.165 61.3907 49.05 62.0507 49.05C63.1707 49.05 63.9757 49.315 64.4657 49.845C64.9557 50.365 65.2007 51.015 65.2007 51.795V56.655C65.2007 56.755 65.1657 56.84 65.0957 56.91C65.0357 56.97 64.9557 57 64.8557 57H64.1657C64.0657 57 63.9807 56.97 63.9107 56.91C63.8507 56.84 63.8207 56.755 63.8207 56.655V56.01C63.6007 56.33 63.2807 56.6 62.8607 56.82C62.4407 57.04 61.9057 57.15 61.2557 57.15ZM61.5707 56.025C62.2207 56.025 62.7507 55.815 63.1607 55.395C63.5807 54.965 63.7907 54.35 63.7907 53.55V53.13L62.0507 53.385C61.3407 53.485 60.8057 53.655 60.4457 53.895C60.0857 54.125 59.9057 54.42 59.9057 54.78C59.9057 55.18 60.0707 55.49 60.4007 55.71C60.7307 55.92 61.1207 56.025 61.5707 56.025ZM67.7021 57C67.6021 57 67.5171 56.97 67.4471 56.91C67.3871 56.84 67.3571 56.755 67.3571 56.655V49.56C67.3571 49.46 67.3871 49.375 67.4471 49.305C67.5171 49.235 67.6021 49.2 67.7021 49.2H68.3921C68.4921 49.2 68.5771 49.235 68.6471 49.305C68.7171 49.375 68.7521 49.46 68.7521 49.56V50.22C69.1621 49.54 69.8621 49.2 70.8521 49.2H71.4371C71.5371 49.2 71.6171 49.235 71.6771 49.305C71.7471 49.365 71.7821 49.445 71.7821 49.545V50.16C71.7821 50.26 71.7471 50.34 71.6771 50.4C71.6171 50.46 71.5371 50.49 71.4371 50.49H70.5371C69.9971 50.49 69.5721 50.65 69.2621 50.97C68.9521 51.28 68.7971 51.705 68.7971 52.245V56.655C68.7971 56.755 68.7621 56.84 68.6921 56.91C68.6221 56.97 68.5371 57 68.4371 57H67.7021ZM76.0288 57.15C74.9988 57.15 74.1738 56.835 73.5538 56.205C72.9438 55.565 72.6088 54.695 72.5488 53.595L72.5338 53.085L72.5488 52.59C72.6188 51.51 72.9588 50.65 73.5688 50.01C74.1888 49.37 75.0038 49.05 76.0138 49.05C77.1238 49.05 77.9838 49.405 78.5938 50.115C79.2038 50.815 79.5088 51.765 79.5088 52.965V53.22C79.5088 53.32 79.4738 53.405 79.4038 53.475C79.3438 53.535 79.2638 53.565 79.1638 53.565H73.9738V53.7C74.0038 54.35 74.1988 54.905 74.5588 55.365C74.9288 55.815 75.4138 56.04 76.0138 56.04C76.4738 56.04 76.8488 55.95 77.1388 55.77C77.4388 55.58 77.6588 55.385 77.7988 55.185C77.8888 55.065 77.9538 54.995 77.9938 54.975C78.0438 54.945 78.1288 54.93 78.2488 54.93H78.9838C79.0738 54.93 79.1488 54.955 79.2088 55.005C79.2688 55.055 79.2988 55.125 79.2988 55.215C79.2988 55.435 79.1588 55.7 78.8788 56.01C78.6088 56.32 78.2238 56.59 77.7238 56.82C77.2338 57.04 76.6688 57.15 76.0288 57.15ZM78.0838 52.53V52.485C78.0838 51.795 77.8938 51.235 77.5138 50.805C77.1438 50.365 76.6438 50.145 76.0138 50.145C75.3838 50.145 74.8838 50.365 74.5138 50.805C74.1538 51.235 73.9738 51.795 73.9738 52.485V52.53H78.0838ZM85.5191 57C85.4191 57 85.3341 56.97 85.2641 56.91C85.2041 56.84 85.1741 56.755 85.1741 56.655V46.86C85.1741 46.75 85.2041 46.665 85.2641 46.605C85.3341 46.535 85.4191 46.5 85.5191 46.5H91.7141C91.8141 46.5 91.8941 46.535 91.9541 46.605C92.0241 46.665 92.0591 46.75 92.0591 46.86V47.43C92.0591 47.53 92.0291 47.615 91.9691 47.685C91.9091 47.745 91.8241 47.775 91.7141 47.775H86.6141V51.06H91.3841C91.4841 51.06 91.5641 51.095 91.6241 51.165C91.6941 51.225 91.7291 51.31 91.7291 51.42V51.975C91.7291 52.075 91.6941 52.16 91.6241 52.23C91.5641 52.29 91.4841 52.32 91.3841 52.32H86.6141V55.725H91.8341C91.9441 55.725 92.0291 55.755 92.0891 55.815C92.1491 55.875 92.1791 55.96 92.1791 56.07V56.655C92.1791 56.755 92.1441 56.84 92.0741 56.91C92.0141 56.97 91.9341 57 91.8341 57H85.5191ZM94.4208 57C94.3208 57 94.2358 56.97 94.1658 56.91C94.1058 56.84 94.0758 56.755 94.0758 56.655V49.545C94.0758 49.445 94.1058 49.365 94.1658 49.305C94.2358 49.235 94.3208 49.2 94.4208 49.2H95.1258C95.2258 49.2 95.3058 49.235 95.3658 49.305C95.4358 49.365 95.4708 49.445 95.4708 49.545V50.205C95.7608 49.835 96.1008 49.55 96.4908 49.35C96.8908 49.15 97.3858 49.05 97.9758 49.05C98.9358 49.05 99.6808 49.36 100.211 49.98C100.751 50.59 101.021 51.405 101.021 52.425V56.655C101.021 56.755 100.986 56.84 100.916 56.91C100.856 56.97 100.776 57 100.676 57H99.9258C99.8258 57 99.7408 56.97 99.6708 56.91C99.6108 56.84 99.5808 56.755 99.5808 56.655V52.5C99.5808 51.79 99.4058 51.24 99.0558 50.85C98.7158 50.46 98.2208 50.265 97.5708 50.265C96.9408 50.265 96.4408 50.465 96.0708 50.865C95.7008 51.255 95.5158 51.8 95.5158 52.5V56.655C95.5158 56.755 95.4808 56.84 95.4108 56.91C95.3508 56.97 95.2708 57 95.1708 57H94.4208ZM106.368 60.3C105.548 60.3 104.888 60.16 104.388 59.88C103.888 59.61 103.533 59.3 103.323 58.95C103.113 58.6 102.998 58.285 102.978 58.005C102.968 57.905 102.998 57.82 103.068 57.75C103.148 57.68 103.233 57.645 103.323 57.645H104.042C104.133 57.645 104.208 57.665 104.267 57.705C104.328 57.755 104.378 57.84 104.418 57.96C104.538 58.28 104.733 58.555 105.003 58.785C105.283 59.025 105.713 59.145 106.293 59.145C107.033 59.145 107.578 58.985 107.928 58.665C108.278 58.355 108.453 57.8 108.453 57V55.98C108.193 56.31 107.863 56.575 107.463 56.775C107.063 56.965 106.588 57.06 106.038 57.06C104.978 57.06 104.183 56.725 103.653 56.055C103.133 55.375 102.858 54.515 102.828 53.475L102.813 53.055L102.828 52.65C102.858 51.62 103.138 50.765 103.668 50.085C104.198 49.395 104.988 49.05 106.038 49.05C107.088 49.05 107.908 49.435 108.498 50.205V49.56C108.498 49.46 108.528 49.375 108.588 49.305C108.658 49.235 108.743 49.2 108.843 49.2H109.533C109.633 49.2 109.718 49.235 109.788 49.305C109.858 49.375 109.893 49.46 109.893 49.56V56.835C109.893 59.145 108.718 60.3 106.368 60.3ZM106.338 55.86C107.018 55.86 107.533 55.635 107.883 55.185C108.233 54.735 108.423 54.2 108.453 53.58C108.463 53.49 108.468 53.315 108.468 53.055C108.468 52.805 108.463 52.635 108.453 52.545C108.423 51.925 108.233 51.39 107.883 50.94C107.543 50.49 107.028 50.265 106.338 50.265C105.628 50.265 105.113 50.485 104.793 50.925C104.473 51.365 104.298 51.945 104.267 52.665L104.253 53.055L104.267 53.46C104.298 54.17 104.473 54.75 104.793 55.2C105.113 55.64 105.628 55.86 106.338 55.86ZM112.348 47.745C112.248 47.745 112.163 47.715 112.093 47.655C112.033 47.585 112.003 47.5 112.003 47.4V46.59C112.003 46.49 112.033 46.405 112.093 46.335C112.163 46.265 112.248 46.23 112.348 46.23H113.293C113.393 46.23 113.478 46.265 113.548 46.335C113.618 46.405 113.653 46.49 113.653 46.59V47.4C113.653 47.5 113.618 47.585 113.548 47.655C113.478 47.715 113.393 47.745 113.293 47.745H112.348ZM112.468 57C112.368 57 112.283 56.97 112.213 56.91C112.153 56.84 112.123 56.755 112.123 56.655V49.545C112.123 49.445 112.153 49.365 112.213 49.305C112.283 49.235 112.368 49.2 112.468 49.2H113.188C113.288 49.2 113.368 49.235 113.428 49.305C113.498 49.365 113.533 49.445 113.533 49.545V56.655C113.533 56.755 113.498 56.84 113.428 56.91C113.368 56.97 113.288 57 113.188 57H112.468ZM116.101 57C116.001 57 115.916 56.97 115.846 56.91C115.786 56.84 115.756 56.755 115.756 56.655V49.545C115.756 49.445 115.786 49.365 115.846 49.305C115.916 49.235 116.001 49.2 116.101 49.2H116.806C116.906 49.2 116.986 49.235 117.046 49.305C117.116 49.365 117.151 49.445 117.151 49.545V50.205C117.441 49.835 117.781 49.55 118.171 49.35C118.571 49.15 119.066 49.05 119.656 49.05C120.616 49.05 121.361 49.36 121.891 49.98C122.431 50.59 122.701 51.405 122.701 52.425V56.655C122.701 56.755 122.666 56.84 122.596 56.91C122.536 56.97 122.456 57 122.356 57H121.606C121.506 57 121.421 56.97 121.351 56.91C121.291 56.84 121.261 56.755 121.261 56.655V52.5C121.261 51.79 121.086 51.24 120.736 50.85C120.396 50.46 119.901 50.265 119.251 50.265C118.621 50.265 118.121 50.465 117.751 50.865C117.381 51.255 117.196 51.8 117.196 52.5V56.655C117.196 56.755 117.161 56.84 117.091 56.91C117.031 56.97 116.951 57 116.851 57H116.101ZM127.972 57.15C126.942 57.15 126.117 56.835 125.497 56.205C124.887 55.565 124.552 54.695 124.492 53.595L124.477 53.085L124.492 52.59C124.562 51.51 124.902 50.65 125.512 50.01C126.132 49.37 126.947 49.05 127.957 49.05C129.067 49.05 129.927 49.405 130.537 50.115C131.147 50.815 131.452 51.765 131.452 52.965V53.22C131.452 53.32 131.417 53.405 131.347 53.475C131.287 53.535 131.207 53.565 131.107 53.565H125.917V53.7C125.947 54.35 126.142 54.905 126.502 55.365C126.872 55.815 127.357 56.04 127.957 56.04C128.417 56.04 128.792 55.95 129.082 55.77C129.382 55.58 129.602 55.385 129.742 55.185C129.832 55.065 129.897 54.995 129.937 54.975C129.987 54.945 130.072 54.93 130.192 54.93H130.927C131.017 54.93 131.092 54.955 131.152 55.005C131.212 55.055 131.242 55.125 131.242 55.215C131.242 55.435 131.102 55.7 130.822 56.01C130.552 56.32 130.167 56.59 129.667 56.82C129.177 57.04 128.612 57.15 127.972 57.15ZM130.027 52.53V52.485C130.027 51.795 129.837 51.235 129.457 50.805C129.087 50.365 128.587 50.145 127.957 50.145C127.327 50.145 126.827 50.365 126.457 50.805C126.097 51.235 125.917 51.795 125.917 52.485V52.53H130.027ZM136.366 57.15C135.336 57.15 134.511 56.835 133.891 56.205C133.281 55.565 132.946 54.695 132.886 53.595L132.871 53.085L132.886 52.59C132.956 51.51 133.296 50.65 133.906 50.01C134.526 49.37 135.341 49.05 136.351 49.05C137.461 49.05 138.321 49.405 138.931 50.115C139.541 50.815 139.846 51.765 139.846 52.965V53.22C139.846 53.32 139.811 53.405 139.741 53.475C139.681 53.535 139.601 53.565 139.501 53.565H134.311V53.7C134.341 54.35 134.536 54.905 134.896 55.365C135.266 55.815 135.751 56.04 136.351 56.04C136.811 56.04 137.186 55.95 137.476 55.77C137.776 55.58 137.996 55.385 138.136 55.185C138.226 55.065 138.291 54.995 138.331 54.975C138.381 54.945 138.466 54.93 138.586 54.93H139.321C139.411 54.93 139.486 54.955 139.546 55.005C139.606 55.055 139.636 55.125 139.636 55.215C139.636 55.435 139.496 55.7 139.216 56.01C138.946 56.32 138.561 56.59 138.061 56.82C137.571 57.04 137.006 57.15 136.366 57.15ZM138.421 52.53V52.485C138.421 51.795 138.231 51.235 137.851 50.805C137.481 50.365 136.981 50.145 136.351 50.145C135.721 50.145 135.221 50.365 134.851 50.805C134.491 51.235 134.311 51.795 134.311 52.485V52.53H138.421ZM141.984 57C141.884 57 141.799 56.97 141.729 56.91C141.669 56.84 141.639 56.755 141.639 56.655V49.56C141.639 49.46 141.669 49.375 141.729 49.305C141.799 49.235 141.884 49.2 141.984 49.2H142.674C142.774 49.2 142.859 49.235 142.929 49.305C142.999 49.375 143.034 49.46 143.034 49.56V50.22C143.444 49.54 144.144 49.2 145.134 49.2H145.719C145.819 49.2 145.899 49.235 145.959 49.305C146.029 49.365 146.064 49.445 146.064 49.545V50.16C146.064 50.26 146.029 50.34 145.959 50.4C145.899 50.46 145.819 50.49 145.719 50.49H144.819C144.279 50.49 143.854 50.65 143.544 50.97C143.234 51.28 143.079 51.705 143.079 52.245V56.655C143.079 56.755 143.044 56.84 142.974 56.91C142.904 56.97 142.819 57 142.719 57H141.984Z" fill="white"/>
</svg>
