<svg width="26" height="24" viewBox="0 0 26 24" fill="none" xmlns="http://www.w3.org/2000/svg">
<path d="M17.5517 16.7614C18.4865 16.6648 19.1957 15.8606 19.1634 14.8954C19.1313 13.9303 18.3253 13.1582 17.3583 13.1582H17.2939C16.2945 13.1904 15.5209 14.0268 15.5532 15.0241C15.5854 15.5067 15.7788 15.9249 16.0689 16.2144C14.9729 18.37 13.2967 19.9463 10.7824 21.2654C9.07396 22.1662 7.30108 22.4879 5.5282 22.2628C4.07761 22.0697 2.94938 21.4263 2.24012 20.3646C1.20867 18.7882 1.11199 17.083 1.98235 15.378C2.59485 14.1555 3.56178 13.2546 4.17428 12.8042C4.04535 12.386 3.8519 11.6783 3.75523 11.1636C-0.918846 14.5416 -0.43528 19.1099 0.983061 21.2654C2.04677 22.874 4.20654 23.8713 6.59191 23.8713C7.23657 23.8713 7.88122 23.8069 8.52598 23.6462C12.6521 22.8418 15.7789 20.3968 17.5517 16.7614ZM23.2251 12.7721C20.7752 9.90884 17.165 8.33246 13.0389 8.33246H12.5231C12.233 7.75338 11.6205 7.36727 10.9436 7.36727H10.8791C9.8799 7.39946 9.10632 8.23588 9.13847 9.23328C9.17073 10.1984 9.97658 10.9705 10.9436 10.9705H11.008C11.7172 10.9383 12.3297 10.4879 12.5876 9.87664H13.1678C15.6177 9.87664 17.9385 10.5844 20.0339 11.9678C21.6456 13.0295 22.8061 14.4129 23.4507 16.0858C23.9987 17.437 23.9664 18.756 23.3862 19.8821C22.4837 21.5871 20.9687 22.5201 18.9701 22.5201C17.6807 22.5201 16.4558 22.134 15.811 21.8444C15.4565 22.1662 14.8117 22.6809 14.3604 23.0027C15.7466 23.6461 17.165 24 18.5188 24C21.6133 24 23.902 22.2949 24.7724 20.5898C25.7072 18.7238 25.6426 15.5067 23.2251 12.7721ZM6.84977 17.3082C6.88203 18.2734 7.68788 19.0454 8.65491 19.0454H8.71942C9.71871 19.0133 10.4923 18.1768 10.46 17.1795C10.4279 16.2143 9.62194 15.4423 8.65491 15.4423H8.59049C8.52598 15.4423 8.4292 15.4423 8.36489 15.4744C7.04322 13.2867 6.49524 10.9061 6.68868 8.33237C6.81752 6.40207 7.46227 4.72912 8.59049 3.34571C9.52527 2.15535 11.3304 1.57627 12.5554 1.54418C15.9722 1.47979 17.4227 5.72641 17.5195 7.43155C17.9385 7.52803 18.6477 7.75329 19.1313 7.91415C18.7444 2.70244 15.5209 0 12.4265 0C9.52527 0 6.84977 2.09116 5.78597 5.17962C4.30321 9.29756 5.27024 13.2546 7.07538 16.3753C6.91429 16.6004 6.81752 16.9544 6.84977 17.3083V17.3082Z" fill="#764ABC"/>
</svg>
